<?xml version="1.0" standalone="no"?>
<!DOCTYPE svg PUBLIC "-//W3C//DTD SVG 20010904//EN"
 "http://www.w3.org/TR/2001/REC-SVG-20010904/DTD/svg10.dtd">
<svg version="1.0" xmlns="http://www.w3.org/2000/svg"
 width="30.000000pt" height="30.000000pt" viewBox="0 0 52.000000 52.000000"
 preserveAspectRatio="xMidYMid meet">
<metadata>
Created by potrace 1.15, written by Peter Selinger 2001-2017
</metadata>
<g transform="translate(0.000000,52.000000) scale(0.100000,-0.100000)"
fill="#ffffff" stroke="none">
<path d="M37 372 c-10 -10 -17 -25 -17 -33 0 -19 221 -239 240 -239 20 0 240
221 240 241 0 18 -31 49 -49 49 -7 0 -51 -36 -98 -80 -47 -44 -89 -80 -92 -80
-4 0 -45 36 -93 80 -47 44 -93 80 -101 80 -7 0 -21 -8 -30 -18z"/>
</g>
</svg>
