<svg xmlns="http://www.w3.org/2000/svg" x="0px" y="0px"
width="50" height="50"
viewBox="0 0 172 172"
style=" fill:#000000;"><g fill="none" fill-rule="nonzero" stroke="none" stroke-width="1" stroke-linecap="butt" stroke-linejoin="miter" stroke-miterlimit="10" stroke-dasharray="" stroke-dashoffset="0" font-family="none" font-weight="none" font-size="none" text-anchor="none" style="mix-blend-mode: normal"><path d="M0,172v-172h172v172z" fill="none"></path><g fill="#f97645"><path d="M123.84,2.01563l-42.70437,42.70437h25.50437v10.32h-51.6c-13.26281,0 -24.08,10.81719 -24.08,24.08v48.16h-25.50437l42.70437,42.70438l42.70438,-42.70438h-25.50438v-10.32h51.6c13.26281,0 24.08,-10.81719 24.08,-24.08v-48.16h25.50438zM123.84,11.74438l26.09563,26.09562h-15.77563v55.04c0,9.54063 -7.65937,17.2 -17.2,17.2h-51.6v-20.64h48.16v-51.6h-15.77562zM55.04,61.92h51.6v20.64h-48.16v51.6h15.77563l-26.09563,26.09563l-26.09562,-26.09563h15.77562v-55.04c0,-9.54062 7.65938,-17.2 17.2,-17.2z"></path></g></g></svg>