<?xml version="1.0" standalone="no"?>
<!DOCTYPE svg PUBLIC "-//W3C//DTD SVG 20010904//EN"
 "http://www.w3.org/TR/2001/REC-SVG-20010904/DTD/svg10.dtd">
<svg version="1.0" xmlns="http://www.w3.org/2000/svg"
 width="100.000000pt" height="100.000000pt" viewBox="0 0 100.000000 100.000000"
 preserveAspectRatio="xMidYMid meet">
<metadata>
Created by potrace 1.15, written by Peter Selinger 2001-2017
</metadata>
<g transform="translate(0.000000,100.000000) scale(0.100000,-0.100000)"
fill="#f97626" stroke="none">
<path d="M208 882 l-88 -88 0 -333 c0 -210 4 -339 10 -352 10 -18 23 -19 231
-19 l221 0 45 -40 c50 -44 88 -55 169 -48 60 5 91 23 138 82 26 31 31 48 34
105 5 83 -19 138 -78 179 l-39 27 -1 268 c0 165 -4 276 -10 288 -10 18 -24 19
-277 19 l-267 0 -88 -88z m602 -211 l0 -259 -60 -4 c-75 -5 -133 -43 -168
-108 -19 -37 -23 -56 -20 -108 l4 -62 -201 2 -200 3 -3 308 -2 307 83 0 c51 0
88 5 95 12 7 7 12 43 12 90 l0 78 230 0 230 0 0 -259z m44 -331 c133 -82 74
-300 -81 -300 -132 0 -212 126 -151 239 46 87 148 113 232 61z"/>
<path d="M750 271 l0 -51 -51 0 c-43 0 -50 -3 -47 -17 2 -14 15 -19 51 -21
l47 -3 0 -45 c0 -38 3 -45 18 -42 12 2 18 15 20 45 3 41 4 42 45 45 30 2 43 8
45 21 3 14 -4 17 -42 17 l-45 0 -3 47 c-2 36 -7 49 -20 51 -15 3 -18 -4 -18
-47z"/>
</g>
</svg>
