<?xml version="1.0" standalone="no"?>
<!DOCTYPE svg PUBLIC "-//W3C//DTD SVG 20010904//EN"
 "http://www.w3.org/TR/2001/REC-SVG-20010904/DTD/svg10.dtd">
<svg version="1.0" xmlns="http://www.w3.org/2000/svg"
 width="100.000000pt" height="100.000000pt" viewBox="0 0 100.000000 100.000000"
 preserveAspectRatio="xMidYMid meet">
<metadata>
Created by potrace 1.15, written by Peter Selinger 2001-2017
</metadata>
<g transform="translate(0.000000,100.000000) scale(0.100000,-0.100000)"
fill="#f97626" stroke="none">
<path d="M360 910 c0 -43 3 -50 20 -50 16 0 20 7 20 30 l0 30 140 0 140 0 0
-120 0 -120 120 0 120 0 0 -230 0 -230 -120 0 c-113 0 -120 -1 -120 -20 0 -19
7 -20 140 -20 l140 0 0 268 0 267 -123 123 -122 122 -178 0 -177 0 0 -50z"/>
<path d="M40 430 l0 -390 300 0 300 0 0 268 0 267 -123 123 -122 122 -178 0
-177 0 0 -390z m320 230 l0 -120 120 0 120 0 0 -230 0 -230 -260 0 -260 0 0
350 0 350 140 0 140 0 0 -120z"/>
</g>
</svg>
