<svg xmlns="http://www.w3.org/2000/svg" x="0px" y="0px"
width="30px" height="30px"
viewBox="0 0 172 172"
style=" fill:#000000;"><g fill="none" fill-rule="nonzero" stroke="none" stroke-width="1" stroke-linecap="butt" stroke-linejoin="miter" stroke-miterlimit="10" stroke-dasharray="" stroke-dashoffset="0" font-family="none" font-weight="none" font-size="none" text-anchor="none" style="mix-blend-mode: normal"><path d="M0,172v-172h172v172z" fill="none"></path><g fill="#ffffff"><path d="M118.62793,9.28027c-7.57203,0 -15.14742,2.88045 -20.91211,8.64514l-15.18017,15.18542c-9.54063,9.54062 -11.18021,24.0548 -4.91834,35.31543l-9.19104,9.19104c-11.26063,-6.26188 -25.7748,-4.62229 -35.31543,4.91834l-15.18542,15.18017c-5.59,5.59 -8.68188,13.01086 -8.68188,20.91211c0,7.90125 3.09188,15.31686 8.68188,20.90686l3.78979,3.78979c5.75125,5.77812 13.32811,8.65564 20.90686,8.65564c7.55187,0 15.13398,-2.87751 20.91211,-8.65564l15.18017,-15.18542c9.54062,-9.54062 11.18021,-24.05481 4.91834,-35.31543l9.19104,-9.19104c4.46125,2.49938 9.4367,3.7373 14.40857,3.7373c7.57875,0 15.12873,-2.87751 20.90686,-8.65564l15.18542,-15.18017c5.59,-5.59 8.68189,-13.01086 8.68189,-20.91211c0,-7.90125 -3.09189,-15.31686 -8.68189,-20.90686l-3.78979,-3.78979c-5.76469,-5.76469 -13.33483,-8.64514 -20.90686,-8.64514zM118.63843,14.63953c6.19469,0 12.39001,2.35912 17.10657,7.07568l3.78979,3.7898c4.56875,4.56875 7.09668,10.64019 7.09668,17.11707c0,6.45 -2.52793,12.52732 -7.09668,17.09607l-15.21167,15.21167c-4.56875,4.56875 -10.64082,7.06519 -17.09082,7.06519c-3.655,0 -7.20544,-0.80331 -10.40357,-2.36206l8.51917,-8.51916c0.61813,0.08062 1.2394,0.13123 1.8844,0.13123c3.60125,0 6.95874,-1.39477 9.48499,-3.92102l15.21167,-15.21167c2.55312,-2.52625 3.95251,-5.91586 3.95251,-9.49023c0,-3.60125 -1.39939,-6.9581 -3.95251,-9.51123l-3.78979,-3.78979c-5.24063,-5.24062 -13.78772,-5.24062 -19.00147,0l-15.21167,15.18543c-2.52625,2.55312 -3.92102,5.90998 -3.92102,9.51123c0,0.645 0.0506,1.26627 0.13123,1.8844l-8.51916,8.51917c-1.55875,-3.19813 -2.36206,-6.74857 -2.36206,-10.40357c0,-6.45 2.49644,-12.52207 7.06519,-17.09082l15.21167,-15.21167c4.71656,-4.71656 10.91188,-7.07568 17.10657,-7.07568zM66.50513,24.92236c-0.34505,-0.04825 -0.70488,-0.03175 -1.0603,0.06299c-1.43512,0.38431 -2.28715,1.85601 -1.90015,3.29114l1.39624,5.19653c0.3225,1.20131 1.40514,1.98938 2.59302,1.98938c0.23112,0 0.467,-0.02998 0.69812,-0.09448c1.43512,-0.38431 2.28715,-1.85601 1.90015,-3.29114l-1.39624,-5.19129c-0.29025,-1.07634 -1.19568,-1.81839 -2.23083,-1.96313zM52.84717,30.28686c-0.34597,0.04325 -0.69325,0.15508 -1.01306,0.34119c-1.28731,0.74175 -1.726,2.38444 -0.98157,3.66907l2.6875,4.65588c0.49988,0.86269 1.40069,1.34375 2.33057,1.34375c0.45688,0 0.91656,-0.11762 1.3385,-0.36218c1.28731,-0.74175 1.73126,-2.38444 0.98682,-3.66907l-2.6875,-4.65588c-0.55833,-0.96548 -1.62333,-1.45251 -2.66126,-1.32276zM118.62793,30.75403c2.06266,0 4.123,0.78462 5.69519,2.35681l3.81604,3.81604c1.505,1.505 2.36731,3.54519 2.36731,5.69519c0,2.15 -0.86231,4.16857 -2.36731,5.70044l-15.21167,15.21167c-0.59125,0.59125 -1.28937,1.07248 -2.04187,1.44873c0.91375,-1.58563 1.39624,-3.38352 1.39624,-5.26477c0,-2.87562 -1.12854,-5.56333 -3.14417,-7.60583c-2.0425,-2.01562 -4.73021,-3.14417 -7.60583,-3.14417c-1.88125,0 -3.67915,0.48249 -5.26477,1.39624c0.34938,-0.7525 0.85748,-1.42374 1.44873,-2.04187l15.21167,-15.21167c1.57219,-1.57219 3.63778,-2.35681 5.70044,-2.35681zM42.04993,38.81128c-0.68733,0 -1.37474,0.26195 -1.90015,0.78735c-1.05081,1.05081 -1.05081,2.74948 0,3.80029l3.80029,3.80029c0.52406,0.52406 1.21215,0.78735 1.90015,0.78735c0.688,0 1.37608,-0.26329 1.90015,-0.78735c1.05081,-1.05081 1.05081,-2.74948 0,-3.80029l-3.80029,-3.80029c-0.52541,-0.52541 -1.21282,-0.78735 -1.90015,-0.78735zM33.84045,49.96021c-1.03969,-0.12938 -2.10494,0.35727 -2.66126,1.32275c-0.74444,1.28462 -0.30049,2.92988 0.98682,3.67432l4.65064,2.6875c0.42194,0.24456 0.88687,0.35693 1.34375,0.35693c0.92987,0 1.83338,-0.48106 2.33057,-1.34375c0.74175,-1.28731 0.29781,-2.92732 -0.98682,-3.66907l-4.65064,-2.6875c-0.32183,-0.18544 -0.6665,-0.29806 -1.01306,-0.34119zM101.53186,54.34314c1.42437,0 2.76854,0.56396 3.78979,1.58521c1.02125,1.02125 1.58521,2.36542 1.58521,3.78979c0,1.45125 -0.56396,2.79479 -1.58521,3.81604l-1.55896,1.55896l-3.92102,3.92102l-7.71607,7.71606l-3.78979,3.7898l-7.78955,7.78955l-3.81604,3.81604l-7.71606,7.71607l-3.92102,3.92102l-1.55896,1.55896c-1.02125,1.02125 -2.41854,1.53272 -3.81604,1.53272c-1.3975,0 -2.79542,-0.51147 -3.78979,-1.53272c-1.02125,-1.02125 -1.58521,-2.36542 -1.58521,-3.78979c0,-1.45125 0.56396,-2.79479 1.58521,-3.81604l1.55896,-1.55896l3.92102,-3.92102l7.71607,-7.71606l3.81604,-3.81604l7.76331,-7.76331l3.81604,-3.81604l7.71606,-7.71607l3.92102,-3.92102l1.55896,-1.55896c1.02125,-1.02125 2.36479,-1.58521 3.81604,-1.58521zM27.77258,62.93054c-1.03653,0.14475 -1.9426,0.88679 -2.23083,1.96313c-0.38431,1.43512 0.46771,2.90683 1.90015,3.29114l5.19128,1.39624c0.23381,0.06181 0.467,0.09448 0.69812,0.09448c1.18519,0 2.27321,-0.79332 2.59302,-1.99463c0.38431,-1.43244 -0.46771,-2.91208 -1.90015,-3.29639l-5.19128,-1.39099c-0.35677,-0.09473 -0.71479,-0.11124 -1.0603,-0.06299zM54.0177,79.255c3.655,0 7.20544,0.80331 10.40357,2.36206l-8.51917,8.51916c-0.61812,-0.08062 -1.2394,-0.13123 -1.8844,-0.13123c-3.60125,0 -6.95874,1.39477 -9.48499,3.92102l-15.21167,15.21167c-2.55312,2.52625 -3.95251,5.91586 -3.95251,9.49023c0,3.60125 1.39939,6.95811 3.95251,9.51123l3.78979,3.78979c2.63375,2.63375 6.07123,3.92627 9.51123,3.92627c3.44,0 6.88336,-1.29252 9.49023,-3.92627l15.21167,-15.18543c2.52625,-2.55313 3.92102,-5.90998 3.92102,-9.51123c0,-0.645 -0.0506,-1.26627 -0.13123,-1.8844l8.51916,-8.51917c1.55875,3.19812 2.36206,6.74857 2.36206,10.40357c0,6.45 -2.49644,12.52207 -7.06519,17.09082l-15.21167,15.21167c-9.43313,9.43312 -24.78001,9.43312 -34.21313,0l-3.7898,-3.78979c-4.56875,-4.56875 -7.09668,-10.64019 -7.09668,-17.11707c0,-6.45 2.52793,-12.52732 7.09668,-17.09607l15.21167,-15.21167c4.56875,-4.56875 10.64082,-7.06519 17.09082,-7.06519zM50.36438,96.26709c-0.91375,1.58563 -1.39624,3.38352 -1.39624,5.26477c0,2.87562 1.12854,5.56333 3.14417,7.60583c2.0425,2.01563 4.73021,3.14417 7.60583,3.14417c1.88125,0 3.67915,-0.48249 5.26477,-1.39624c-0.34937,0.7525 -0.85748,1.42374 -1.44873,2.04187l-15.21167,15.21167c-3.14437,3.14437 -8.25126,3.14437 -11.39563,0l-3.81604,-3.81604c-1.505,-1.505 -2.36731,-3.54519 -2.36731,-5.69519c0,-2.15 0.86231,-4.16857 2.36731,-5.70044l15.21167,-15.21167c0.59125,-0.59125 1.28937,-1.07248 2.04187,-1.44873zM131.6875,96.75c-19.264,0 -34.9375,15.6735 -34.9375,34.9375c0,19.264 15.6735,34.9375 34.9375,34.9375c19.264,0 34.9375,-15.6735 34.9375,-34.9375c0,-19.264 -15.6735,-34.9375 -34.9375,-34.9375zM131.6875,102.125c16.29969,0 29.5625,13.26281 29.5625,29.5625c0,16.29969 -13.26281,29.5625 -29.5625,29.5625c-16.29969,0 -29.5625,-13.26281 -29.5625,-29.5625c0,-16.29969 13.26281,-29.5625 29.5625,-29.5625zM120.28137,117.59387c-0.68766,0 -1.37083,0.2672 -1.8949,0.7926c-1.05081,1.05081 -1.05081,2.74948 0,3.80029l9.50073,9.50073l-9.50073,9.50073c-1.05081,1.05081 -1.05081,2.74948 0,3.80029c1.05081,1.05081 2.75217,1.05081 3.80029,0l9.50073,-9.50073l9.50073,9.50073c1.05081,1.05081 2.75217,1.05081 3.80029,0c1.05081,-1.04812 1.05081,-2.74948 0,-3.80029l-9.50073,-9.50073l9.50073,-9.50073c1.04812,-1.04812 1.05081,-2.74948 0,-3.80029c-1.05081,-1.05081 -2.75217,-1.05081 -3.80029,0l-9.50073,9.50073l-9.50073,-9.50073c-0.52541,-0.52541 -1.21773,-0.7926 -1.9054,-0.7926z"></path></g></g></svg>