<svg xmlns="http://www.w3.org/2000/svg" x="0px" y="0px"
width="20px" height="20px"
viewBox="0 0 172 172"
style=" fill:#000000;"><g fill="none" fill-rule="nonzero" stroke="none" stroke-width="1" stroke-linecap="butt" stroke-linejoin="miter" stroke-miterlimit="10" stroke-dasharray="" stroke-dashoffset="0" font-family="none" font-weight="none" font-size="none" text-anchor="none" style="mix-blend-mode: normal"><path d="M0,172v-172h172v172z" fill="none"></path><g fill="#e74c3c"><path d="M86,6.88c-43.65603,0 -79.12,35.46397 -79.12,79.12c0,43.65603 35.46397,79.12 79.12,79.12c43.65603,0 79.12,-35.46397 79.12,-79.12c0,-43.65603 -35.46397,-79.12 -79.12,-79.12zM86,13.76c39.93779,0 72.24,32.30221 72.24,72.24c0,39.93779 -32.30221,72.24 -72.24,72.24c-39.93779,0 -72.24,-32.30221 -72.24,-72.24c0,-39.93779 32.30221,-72.24 72.24,-72.24zM86,37.84c-11.43391,0 -20.64,9.20609 -20.64,20.64v10.32h-3.44c-5.66037,0 -10.32,4.65963 -10.32,10.32v34.4c0,5.66037 4.65963,10.32 10.32,10.32h48.16c5.66037,0 10.32,-4.65963 10.32,-10.32v-34.4c0,-5.66037 -4.65963,-10.32 -10.32,-10.32h-37.84v-10.32c0,-7.83009 5.92991,-13.76 13.76,-13.76c6.87092,0 12.23247,4.61152 13.48453,10.98515c0.36735,1.86461 2.17672,3.07837 4.04133,2.71102c1.86461,-0.36735 3.07837,-2.17672 2.71102,-4.04133c-1.86458,-9.49164 -10.20364,-16.53485 -20.23687,-16.53485zM61.92,75.68h6.30219c0.37149,0.0614 0.75054,0.0614 1.12203,0h40.73578c1.90763,0 3.44,1.53237 3.44,3.44v34.4c0,1.90763 -1.53237,3.44 -3.44,3.44h-48.16c-1.90763,0 -3.44,-1.53237 -3.44,-3.44v-34.4c0,-1.90763 1.53237,-3.44 3.44,-3.44zM86,86c-3.79972,0 -6.88,3.08028 -6.88,6.88c0.00194,2.45604 1.313,4.72479 3.44,5.95281v4.36719c0,2.064 1.376,3.44 3.44,3.44c2.064,0 3.44,-1.376 3.44,-3.44v-4.3739c2.12492,-1.22682 3.43566,-3.49245 3.44,-5.9461c0,-3.79972 -3.08028,-6.88 -6.88,-6.88z"></path></g></g></svg>