<svg xmlns="http://www.w3.org/2000/svg" x="0px" y="0px"
width="20px" height="20px"
viewBox="0 0 172 172"
style=" fill:#000000;"><g fill="none" fill-rule="nonzero" stroke="none" stroke-width="1" stroke-linecap="butt" stroke-linejoin="miter" stroke-miterlimit="10" stroke-dasharray="" stroke-dashoffset="0" font-family="none" font-weight="none" font-size="none" text-anchor="none" style="mix-blend-mode: normal"><path d="M0,172v-172h172v172z" fill="none"></path><g><path d="M133.03125,52.40625c14.78125,0 26.875,12.09375 26.875,26.875c0,14.78125 -12.09375,26.875 -26.875,26.875h-94.0625c-14.78125,0 -26.875,-12.09375 -26.875,-26.875c0,-14.78125 12.09375,-26.875 26.875,-26.875h6.71875v-6.71875c0,-22.30625 18.00625,-40.3125 40.3125,-40.3125c22.30625,0 40.3125,18.00625 40.3125,40.3125v6.71875z" fill="#ffffff"></path><path d="M133.03125,110.1875c-2.28438,0 -4.03125,-1.74688 -4.03125,-4.03125c0,-2.28437 1.74687,-4.03125 4.03125,-4.03125c12.63125,0 22.84375,-10.2125 22.84375,-22.84375c0,-12.63125 -10.2125,-22.84375 -22.84375,-22.84375h-6.71875c-2.28437,0 -4.03125,-1.74687 -4.03125,-4.03125v-6.71875c0,-20.02187 -16.25937,-36.28125 -36.28125,-36.28125c-20.02188,0 -36.28125,16.25938 -36.28125,36.28125v6.71875c0,2.28438 -1.74687,4.03125 -4.03125,4.03125h-6.71875c-12.63125,0 -22.84375,10.2125 -22.84375,22.84375c0,12.63125 10.2125,22.84375 22.84375,22.84375c2.28437,0 4.03125,1.74688 4.03125,4.03125c0,2.28437 -1.74688,4.03125 -4.03125,4.03125c-17.06562,0 -30.90625,-13.84063 -30.90625,-30.90625c0,-17.06563 13.84063,-30.90625 30.90625,-30.90625h2.6875v-2.6875c0,-24.45625 19.8875,-44.34375 44.34375,-44.34375c24.45625,0 44.34375,19.8875 44.34375,44.34375v2.6875h2.6875c17.06563,0 30.90625,13.84062 30.90625,30.90625c0,17.06562 -13.84062,30.90625 -30.90625,30.90625z" fill="#444b54"></path><path d="M32.25,149.15625l53.75,-80.625l53.75,80.625h-40.3125l-13.4375,17.46875l-13.4375,-17.46875z" fill="#ffffff"></path><path d="M86,170.65625c-1.20937,0 -2.41875,-0.5375 -3.225,-1.6125l-12.22813,-15.85625h-38.29687c-1.47813,0 -2.82188,-0.80625 -3.49375,-2.15c-0.67187,-1.34375 -0.67187,-2.95625 0.13438,-4.16562l53.75,-80.625c0.80625,-1.075 2.01563,-1.74688 3.35938,-1.74688c1.34375,0 2.55313,0.67188 3.35938,1.74688l53.75,80.625c0.80625,1.20938 0.94063,2.82188 0.13438,4.16563c-0.80625,1.34375 -2.01562,2.15 -3.49375,2.15h-38.29687l-12.22812,15.85625c-0.80625,1.075 -2.01562,1.6125 -3.225,1.6125zM39.775,145.125h32.7875c1.20937,0 2.41875,0.5375 3.225,1.6125l10.2125,13.30312l10.2125,-13.30312c0.80625,-0.94063 1.88125,-1.6125 3.225,-1.6125h32.7875l-46.225,-69.3375z" fill="#2ecc71"></path><path d="M72.5625,153.1875c-0.26875,0 -0.67187,0 -0.94062,-0.13438c-2.15,-0.5375 -3.49375,-2.6875 -2.95625,-4.8375l10.75,-43c0.5375,-2.15 2.6875,-3.49375 4.8375,-2.95625c2.15,0.5375 3.49375,2.6875 2.95625,4.8375l-10.75,43c-0.40312,1.88125 -2.15,3.09062 -3.89687,3.09062z" fill="#2ecc71"></path><g fill="#2ecc71"><path d="M87.34375,106.15625h-4.03125l-9.40625,43l14.78125,16.125z"></path></g></g></g></svg>