<?xml version="1.0" standalone="no"?>
<!DOCTYPE svg PUBLIC "-//W3C//DTD SVG 20010904//EN"
 "http://www.w3.org/TR/2001/REC-SVG-20010904/DTD/svg10.dtd">
<svg version="1.0" xmlns="http://www.w3.org/2000/svg"
 width="100.000000pt" height="100.000000pt" viewBox="0 0 100.000000 100.000000"
 preserveAspectRatio="xMidYMid meet">
    <metadata>
    Created by potrace 1.15, written by Peter Selinger 2001-2017
    </metadata>
        <g transform="translate(0.000000,100.000000) scale(0.100000,-0.100000)"
        fill="#000000" stroke="none">
        <path d="M12 988 c-17 -17 -17 -959 0 -976 17 -17 759 -17 776 0 8 8 12 47 12
        112 0 98 0 99 -20 81 -16 -14 -20 -31 -20 -80 0 -34 -5 -66 -12 -73 -17 -17
        -679 -17 -696 0 -17 17 -17 879 0 896 17 17 679 17 696 0 7 -7 12 -39 12 -73
        0 -49 4 -66 20 -80 20 -18 20 -17 20 81 0 65 -4 104 -12 112 -17 17 -759 17
        -776 0z"/>
        <path d="M740 723 c0 -10 42 -59 92 -110 l93 -93 -303 0 c-295 0 -302 0 -302
        -20 0 -20 7 -20 302 -20 l303 0 -93 -93 c-89 -90 -111 -127 -74 -127 21 0 242
        219 242 240 0 21 -221 240 -243 240 -9 0 -17 -8 -17 -17z"/>
    </g>
</svg>
