<?xml version="1.0" standalone="no"?>
<!DOCTYPE svg PUBLIC "-//W3C//DTD SVG 20010904//EN"
 "http://www.w3.org/TR/2001/REC-SVG-20010904/DTD/svg10.dtd">
<svg version="1.0" xmlns="http://www.w3.org/2000/svg"
 width="100.000000pt" height="100.000000pt" viewBox="0 0 100.000000 100.000000"
 preserveAspectRatio="xMidYMid meet">
    <metadata>
        Created by potrace 1.15, written by Peter Selinger 2001-2017
    </metadata>
    <g transform="translate(0.000000,100.000000) scale(0.100000,-0.100000)"
    fill="#f97626" stroke="none">
        <path d="M378 925 l-32 -45 -97 0 c-122 0 -129 -5 -129 -100 0 -61 3 -71 25
                -88 23 -19 25 -30 50 -268 30 -291 30 -289 55 -314 19 -19 34 -20 250 -20 216
                0 231 1 250 20 25 25 25 23 55 314 25 238 27 249 50 268 22 17 25 27 25 88 0
                95 -7 100 -129 100 l-97 0 -32 45 -32 45 -90 0 -90 0 -32 -45z m457 -145 l0
                -55 -335 0 -335 0 -3 44 c-6 77 -30 72 340 69 l333 -3 0 -55z m-48 -132 c-3
                -18 -16 -132 -28 -253 -13 -135 -27 -229 -36 -242 -13 -23 -16 -23 -223 -23
                -207 0 -210 0 -223 22 -9 14 -23 108 -36 243 -12 121 -25 235 -28 253 l-5 32
                292 0 292 0 -5 -32z"/>
        <path d="M350 593 c0 -10 26 -43 57 -75 l57 -58 -57 -58 c-57 -58 -72 -92 -40
                -92 10 0 43 26 75 57 l58 57 58 -57 c58 -57 92 -72 92 -40 0 10 -26 43 -57 75
                l-57 58 57 58 c57 58 72 92 40 92 -10 0 -43 -26 -75 -57 l-58 -57 -58 57 c-58
                57 -92 72 -92 40z"/>
    </g>
</svg>
