<?xml version="1.0" standalone="no"?>
<!DOCTYPE svg PUBLIC "-//W3C//DTD SVG 20010904//EN"
 "http://www.w3.org/TR/2001/REC-SVG-20010904/DTD/svg10.dtd">
<svg version="1.0" xmlns="http://www.w3.org/2000/svg"
 width="100.000000pt" height="100.000000pt" viewBox="0 0 100.000000 100.000000"
 preserveAspectRatio="xMidYMid meet">
<metadata>
Created by potrace 1.15, written by Peter Selinger 2001-2017
</metadata>
<g transform="translate(0.000000,100.000000) scale(0.100000,-0.100000)"
fill="#ffffff" stroke="none">
<path d="M355 945 c-22 -8 -41 -15 -42 -15 -2 0 -3 -9 -3 -20 0 -23 31 -27 76
-9 49 18 171 12 239 -12 102 -36 131 -5 40 41 -43 21 -66 25 -160 27 -79 2
-121 -1 -150 -12z"/>
<path d="M208 858 c-58 -53 -148 -174 -148 -199 0 -42 39 -19 93 54 30 39 73
89 96 110 42 38 51 69 21 75 -8 1 -36 -17 -62 -40z"/>
<path d="M357 840 c-26 -10 -67 -34 -91 -53 -53 -44 -121 -140 -113 -161 10
-26 34 -18 58 17 55 80 149 157 192 157 7 0 22 6 32 14 16 12 17 16 6 30 -17
20 -24 20 -84 -4z"/>
<path d="M480 842 c0 -14 8 -23 23 -26 112 -22 139 -30 184 -61 82 -55 126
-133 147 -259 11 -61 15 -71 34 -74 19 -3 22 1 22 35 0 53 -26 156 -51 205
-55 108 -172 186 -296 196 -59 4 -63 3 -63 -16z"/>
<path d="M750 843 c0 -9 22 -39 49 -68 72 -76 98 -133 135 -297 4 -19 13 -28
26 -28 17 0 20 7 20 39 0 98 -85 281 -159 344 -37 30 -71 36 -71 10z"/>
<path d="M617 733 c-16 -15 -4 -38 39 -76 48 -43 94 -123 94 -167 0 -35 14
-53 36 -48 15 3 18 11 16 42 -8 89 -57 178 -124 226 -43 31 -50 34 -61 23z"/>
<path d="M400 638 c-43 -29 -102 -105 -98 -127 7 -33 42 -23 66 19 62 109 208
107 261 -4 12 -23 21 -54 21 -68 0 -40 10 -58 32 -58 19 0 20 5 16 58 -5 71
-32 126 -82 166 -32 27 -47 31 -109 34 -62 3 -77 1 -107 -20z"/>
<path d="M222 565 c-62 -99 -97 -131 -152 -140 -30 -5 -40 -11 -40 -26 0 -31
76 -29 129 4 39 24 165 211 157 233 -13 34 -42 12 -94 -71z"/>
<path d="M447 569 c-20 -12 -48 -64 -71 -135 -33 -100 -108 -184 -180 -199
-14 -3 -37 -7 -51 -10 -17 -4 -25 -12 -25 -25 0 -17 7 -20 43 -20 116 0 219
99 272 258 9 29 28 66 42 83 20 24 23 32 13 44 -15 17 -19 18 -43 4z"/>
<path d="M520 558 c0 -6 10 -32 22 -57 21 -44 21 -46 5 -124 -22 -106 -74
-215 -132 -272 -45 -45 -54 -74 -27 -83 8 -2 39 21 69 53 122 126 189 384 121
470 -20 26 -58 34 -58 13z"/>
<path d="M240 413 c-38 -51 -82 -79 -142 -88 -30 -5 -38 -10 -38 -27 0 -19 5
-20 59 -16 71 5 119 34 161 97 58 86 21 116 -40 34z"/>
<path d="M693 374 c-62 -37 -93 -95 -93 -174 0 -80 31 -138 94 -175 60 -35
152 -35 212 0 63 37 94 95 94 175 0 123 -77 200 -201 200 -51 0 -73 -5 -106
-26z m185 -44 c130 -79 74 -280 -78 -280 -85 0 -150 65 -150 150 0 116 129
190 228 130z"/>
<path d="M834 240 c-27 -32 -53 -59 -57 -59 -4 -1 -21 9 -37 21 -30 21 -30 21
-45 2 -13 -17 -12 -21 13 -42 74 -64 67 -65 143 18 38 41 68 80 69 85 0 6 -9
16 -19 22 -17 10 -25 5 -67 -47z"/>
</g>
</svg>
