<?xml version="1.0" standalone="no"?>
<!DOCTYPE svg PUBLIC "-//W3C//DTD SVG 20010904//EN"
 "http://www.w3.org/TR/2001/REC-SVG-20010904/DTD/svg10.dtd">
<svg version="1.0" xmlns="http://www.w3.org/2000/svg"
 width="100.000000pt" height="100.000000pt" viewBox="0 0 100.000000 100.000000"
 preserveAspectRatio="xMidYMid meet">
<metadata>
Created by potrace 1.15, written by Peter Selinger 2001-2017
</metadata>
<g transform="translate(0.000000,100.000000) scale(0.100000,-0.100000)"
fill="#ffffff" stroke="none">
<path d="M947 993 c-4 -3 -7 -57 -7 -120 l0 -113 -115 0 -115 0 0 -115 0 -114
-117 -3 -118 -3 -3 -117 -3 -118 -114 0 -115 0 0 -115 0 -115 -115 0 c-94 0
-117 -3 -121 -15 -4 -8 -1 -22 6 -30 11 -13 37 -15 144 -13 l131 3 3 117 3
117 117 3 117 3 3 112 3 112 112 3 112 3 3 117 3 117 117 3 117 3 3 129 c2 86
-1 133 -9 142 -12 15 -31 18 -42 7z"/>
<path d="M500 951 c-163 -42 -174 -51 -121 -105 l31 -32 -120 -119 c-83 -83
-120 -127 -120 -142 0 -17 6 -23 23 -23 16 0 62 39 155 133 73 74 132 141 132
149 0 8 -9 26 -19 40 l-20 24 92 22 c51 12 95 22 99 22 5 0 0 -27 -33 -153
l-10 -37 -28 21 c-17 13 -36 19 -48 15 -28 -9 -516 -502 -511 -517 2 -7 12
-17 21 -23 14 -9 55 27 260 232 l243 243 29 -31 c16 -16 39 -30 51 -30 20 0
25 15 63 166 23 91 39 169 36 175 -10 15 -53 9 -205 -30z"/>
</g>
</svg>
