<?xml version="1.0" standalone="no"?>
<!DOCTYPE svg PUBLIC "-//W3C//DTD SVG 20010904//EN"
 "http://www.w3.org/TR/2001/REC-SVG-20010904/DTD/svg10.dtd">
<svg version="1.0" xmlns="http://www.w3.org/2000/svg"
 width="100.000000pt" height="100.000000pt" viewBox="0 0 100.000000 100.000000"
 preserveAspectRatio="xMidYMid meet">
    <metadata>
    Created by potrace 1.15, written by Peter Selinger 2001-2017
    </metadata>
    <g transform="translate(0.000000,100.000000) scale(0.100000,-0.100000)"
    fill="#ffffff" stroke="none">
        <path d="M326 934 c-21 -21 -26 -36 -26 -74 0 -66 34 -100 100 -100 66 0 100
        34 100 100 0 66 -34 100 -100 100 -38 0 -53 -5 -74 -26z"/>
        <path d="M546 934 c-21 -21 -26 -36 -26 -74 0 -66 34 -100 100 -100 38 0 53 5
        74 26 21 21 26 36 26 74 0 66 -34 100 -100 100 -38 0 -53 -5 -74 -26z"/>
        <path d="M675 750 c-68 -28 -75 -29 -241 -29 -199 -1 -199 -1 -233 -94 -27
        -75 -26 -109 8 -186 42 -98 51 -91 51 38 0 67 4 111 10 111 6 0 10 -94 10
        -263 0 -281 1 -287 50 -287 46 0 50 13 50 177 0 95 4 153 10 153 6 0 10 -58
        10 -154 0 -168 4 -180 56 -174 15 2 31 10 35 18 4 8 12 137 16 285 l8 270 75
        2 c51 1 67 -1 50 -7 -14 -4 -46 -8 -73 -9 l-47 -1 2 -277 3 -278 33 -3 c59 -6
        62 3 62 174 0 96 4 154 10 154 6 0 10 -58 10 -153 0 -164 4 -177 50 -177 49 0
        50 6 50 287 0 169 4 263 10 263 6 0 10 -44 10 -111 0 -81 3 -110 12 -107 18 6
        67 128 68 167 0 27 -31 98 -55 129 -2 2 -21 -6 -44 -17 -22 -12 -44 -21 -48
        -21 -4 1 23 17 60 36 67 34 68 35 65 72 -3 35 -5 37 -38 39 -21 2 -64 -10
        -105 -27z"/>
    </g>
</svg>
