<?xml version="1.0" standalone="no"?>
<!DOCTYPE svg PUBLIC "-//W3C//DTD SVG 20010904//EN"
 "http://www.w3.org/TR/2001/REC-SVG-20010904/DTD/svg10.dtd">
<svg version="1.0" xmlns="http://www.w3.org/2000/svg"
 width="100.000000pt" height="100.000000pt" viewBox="0 0 100.000000 100.000000"
 preserveAspectRatio="xMidYMid meet">
<metadata>
Created by potrace 1.15, written by Peter Selinger 2001-2017
</metadata>
<g transform="translate(0.000000,100.000000) scale(0.100000,-0.100000)"
fill="#ffffff" stroke="none">
<path d="M613 940 c-17 -10 -36 -28 -42 -38 -9 -16 -24 -20 -98 -24 -73 -3
-100 -10 -156 -35 -87 -41 -159 -113 -200 -201 -30 -63 -32 -73 -32 -182 0
-109 2 -119 32 -182 41 -88 113 -160 201 -201 63 -30 73 -32 182 -32 109 0
119 2 182 32 88 41 160 113 201 201 30 63 32 73 32 182 0 109 -2 119 -32 180
-28 59 -31 72 -26 135 5 82 -13 125 -67 163 -43 29 -131 31 -177 2z m163 -64
c48 -48 47 -94 -6 -194 -22 -43 -47 -86 -55 -96 -15 -20 -15 -20 -30 0 -8 10
-33 53 -55 96 -53 100 -54 146 -6 194 28 28 42 34 76 34 34 0 48 -6 76 -34z
m64 -266 c11 -22 23 -60 27 -85 l6 -45 -77 0 c-42 0 -76 3 -76 6 0 7 93 163
97 164 2 0 12 -18 23 -40z m-554 -7 c-3 -21 -6 -57 -6 -80 l0 -43 -76 0 -77 0
6 43 c3 23 13 59 22 80 l15 37 61 0 62 0 -7 -37z m194 -43 l0 -80 -76 0 -77 0
6 70 c3 39 9 75 12 80 3 6 35 10 71 10 l64 0 0 -80z m149 15 c58 -91 57 -95
-34 -95 l-75 0 0 80 0 80 34 0 c31 0 38 -6 75 -65z m-349 -177 c0 -24 3 -60 6
-80 l7 -38 -62 0 -61 0 -15 37 c-9 21 -19 57 -22 80 l-6 43 77 0 76 0 0 -42z
m200 -38 l0 -80 -64 0 c-36 0 -68 4 -71 10 -3 5 -9 41 -12 80 l-6 70 77 0 76
0 0 -80z m187 10 c-3 -39 -9 -75 -12 -80 -3 -6 -35 -10 -71 -10 l-64 0 0 80 0
80 76 0 77 0 -6 -70z m200 26 c-4 -24 -14 -60 -24 -80 -16 -35 -18 -36 -76
-36 l-60 0 7 38 c3 20 6 56 6 80 l0 42 76 0 77 0 -6 -44z"/>
<path d="M640 860 c-13 -13 -20 -33 -20 -60 0 -27 7 -47 20 -60 13 -13 33 -20
60 -20 27 0 47 7 60 20 13 13 20 33 20 60 0 27 -7 47 -20 60 -13 13 -33 20
-60 20 -27 0 -47 -7 -60 -20z"/>
</g>
</svg>
