<?xml version="1.0" standalone="no"?>
<!DOCTYPE svg PUBLIC "-//W3C//DTD SVG 20010904//EN"
 "http://www.w3.org/TR/2001/REC-SVG-20010904/DTD/svg10.dtd">
<svg version="1.0" xmlns="http://www.w3.org/2000/svg"
 width="100.000000pt" height="100.000000pt" viewBox="0 0 100.000000 100.000000"
 preserveAspectRatio="xMidYMid meet">
<metadata>
Created by potrace 1.15, written by Peter Selinger 2001-2017
</metadata>
<g transform="translate(0.000000,100.000000) scale(0.100000,-0.100000)"
fill="#ffffff" stroke="none">
<path d="M385 957 c-90 -30 -172 -103 -215 -192 -36 -74 -40 -208 -9 -290 31
-82 121 -173 202 -203 78 -30 195 -30 272 -1 73 27 156 104 192 177 25 51 28
67 28 162 0 96 -3 110 -29 162 -35 70 -94 128 -166 164 -46 23 -70 28 -145 31
-55 2 -105 -2 -130 -10z m249 -66 c145 -71 213 -243 156 -394 -78 -207 -352
-264 -510 -107 -161 161 -99 433 117 515 59 22 177 15 237 -14z"/>
<path d="M433 794 c-46 -23 -75 -74 -75 -131 0 -79 61 -138 142 -138 81 0 142
59 142 138 0 112 -110 180 -209 131z m132 -58 c32 -32 40 -69 25 -107 -16 -39
-46 -59 -88 -59 -44 0 -68 14 -88 52 -34 66 11 138 88 138 28 0 46 -7 63 -24z"/>
<path d="M452 479 c-75 -14 -141 -64 -116 -89 7 -7 25 -2 60 17 69 39 141 38
208 -1 36 -21 51 -25 59 -17 17 17 -3 42 -54 68 -53 26 -100 32 -157 22z"/>
<path d="M240 155 l0 -25 260 0 260 0 0 25 0 25 -260 0 -260 0 0 -25z"/>
</g>
</svg>
