<svg xmlns="http://www.w3.org/2000/svg" x="0px" y="0px"
width="20px" height="20px"
viewBox="0 0 172 172"
style=" fill:#000000;"><g fill="none" fill-rule="nonzero" stroke="none" stroke-width="1" stroke-linecap="butt" stroke-linejoin="miter" stroke-miterlimit="10" stroke-dasharray="" stroke-dashoffset="0" font-family="none" font-weight="none" font-size="none" text-anchor="none" style="mix-blend-mode: normal"><path d="M0,172v-172h172v172z" fill="none"></path><g fill="#ffffff"><path d="M86,0c-3.52062,0 -10.23937,0.71219 -15.8025,5.4825c-0.80625,0.60469 -2.53969,2.10969 -5.6975,4.8375h43c-2.75469,-2.43219 -4.74344,-4.17906 -5.4825,-4.73c-5.72437,-4.90469 -12.51031,-5.59 -16.0175,-5.59zM30.96,17.2c-1.89469,0 -3.44,1.54531 -3.44,3.44v66.22l28.595,22.4675c7.37719,-5.805 12.7925,-10.01094 14.0825,-10.965c6.93375,-5.07937 13.85406,-5.4825 15.8025,-5.4825c3.34594,0 9.84969,0.73906 15.91,5.59c1.23625,0.99438 6.49031,5.14656 13.76,10.8575l28.81,-22.4675v-66.22c0,-1.89469 -1.53187,-3.44 -3.44,-3.44zM82.56,34.4h6.88v20.64h20.64v6.88h-20.64v20.64h-6.88v-20.64h-20.64v-6.88h20.64zM20.64,48.9125c-11.08594,9.82281 -19.4575,17.3075 -19.4575,17.3075l19.4575,15.265zM151.36,48.9125v32.5725l19.4575,-15.265c0,0 -8.37156,-7.48469 -19.4575,-17.3075zM0,74.0675v79.55c11.87875,-9.39281 34.25219,-26.99594 50.6325,-39.8825l-23.1125,-18.06l-0.9675,-0.7525zM172,74.0675l-20.64,16.125l-6.88,5.4825v-0.1075l-23.22,18.1675c16.32656,12.81938 38.76719,30.38219 50.74,39.775zM86,99.76c-1.00781,0 -6.32906,0.24188 -11.7175,4.1925c-4.36719,3.21156 -59.13844,46.39969 -74.2825,58.3725v6.235c0,1.90813 1.54531,3.44 3.44,3.44h165.12c1.90813,0 3.44,-1.53187 3.44,-3.44v-6.3425c-15.49344,-12.1475 -69.9825,-54.85187 -74.39,-58.3725c-4.42094,-3.5475 -9.16437,-4.085 -11.61,-4.085z"></path></g></g></svg>