<svg xmlns="http://www.w3.org/2000/svg" x="0px" y="0px"
width="50" height="50"
viewBox="0 0 172 172"
style=" fill:#000000;"><g fill="none" fill-rule="nonzero" stroke="none" stroke-width="1" stroke-linecap="butt" stroke-linejoin="miter" stroke-miterlimit="10" stroke-dasharray="" stroke-dashoffset="0" font-family="none" font-weight="none" font-size="none" text-anchor="none" style="mix-blend-mode: normal"><path d="M0,172v-172h172v172z" fill="none"></path><g fill="#f97645"><path d="M17.2,6.88c-9.45834,0 -17.2,7.74166 -17.2,17.2v82.56c0,9.45834 7.74166,17.2 17.2,17.2h127.28v-103.2h-110.77875c-1.65001,-7.76816 -8.26087,-13.76 -16.50125,-13.76zM17.2,13.76c5.73958,0 10.32,4.58042 10.32,10.32v68.90078c-2.88636,-2.18973 -6.4399,-3.54078 -10.32,-3.54078c-3.8801,0 -7.43364,1.35105 -10.32,3.54078v-68.90078c0,-5.73958 4.58042,-10.32 10.32,-10.32zM34.4,27.52h103.2v89.44h-120.4c-5.73958,0 -10.32,-4.58042 -10.32,-10.32c0,-5.73958 4.58042,-10.32 10.32,-10.32c5.73958,0 10.32,4.58042 10.32,10.32h6.88zM151.36,34.4c-1.24059,-0.01754 -2.39452,0.63425 -3.01993,1.7058c-0.62541,1.07155 -0.62541,2.39684 0,3.46839c0.62541,1.07155 1.77935,1.72335 3.01993,1.7058v89.44h-120.4c-2.58728,0 -4.89907,-0.97131 -6.74562,-2.58672c-0.92096,-0.83338 -2.21961,-1.10566 -3.39775,-0.71237c-1.17814,0.39329 -2.05282,1.39107 -2.28848,2.61056c-0.23566,1.21949 0.20429,2.47132 1.15108,3.27524c2.99008,2.61579 6.93991,4.29328 11.28078,4.29328h127.28v-103.2zM99.76,44.72l7.69297,7.69297l-17.99281,17.0186l-17.2,-18.06l-24.28156,22.95125l4.73,5.00547l19.29625,-18.24813l17.2,18.06l23.11922,-21.85609l8.07594,8.07594v-20.64zM165.12,48.16c-1.24059,-0.01754 -2.39452,0.63425 -3.01993,1.7058c-0.62541,1.07155 -0.62541,2.39684 0,3.46839c0.62541,1.07155 1.77935,1.72335 3.01993,1.7058v89.44h-120.4c-2.58729,0 -4.89906,-0.97131 -6.74563,-2.58672c-0.92095,-0.8334 -2.21962,-1.10568 -3.39777,-0.7124c-1.17815,0.39329 -2.05284,1.39108 -2.28849,2.61058c-0.23566,1.2195 0.20431,2.47134 1.15111,3.27525c2.99008,2.61579 6.93991,4.29328 11.28078,4.29328h127.28v-103.2zM48.16,92.88v6.88h72.24v-6.88z"></path></g></g></svg>