<svg xmlns="http://www.w3.org/2000/svg" x="0px" y="0px"
width="25px" height="25px"
viewBox="0 0 172 172"
style=" fill:#000000;"><g fill="none" fill-rule="nonzero" stroke="none" stroke-width="1" stroke-linecap="butt" stroke-linejoin="miter" stroke-miterlimit="10" stroke-dasharray="" stroke-dashoffset="0" font-family="none" font-weight="none" font-size="none" text-anchor="none" style="mix-blend-mode: normal"><path d="M0,172v-172h172v172z" fill="none"></path><g fill="#f97646"><path d="M8.0625,16.125c-4.44067,0 -8.0625,3.62183 -8.0625,8.0625v112.875c0,4.44067 3.62183,8.0625 8.0625,8.0625h99.60547c6.21484,9.6792 17.05933,16.125 29.39453,16.125c19.26392,0 34.9375,-15.67358 34.9375,-34.9375c0,-14.5083 -8.89185,-26.95898 -21.5,-32.2395v-69.8855c0,-4.44067 -3.62183,-8.0625 -8.0625,-8.0625zM8.0625,21.5h134.375c1.48022,0 2.6875,1.20728 2.6875,2.6875v8.0625h-139.75v-8.0625c0,-1.48022 1.20728,-2.6875 2.6875,-2.6875zM5.375,37.625h139.75v54.72632c-2.59302,-0.61938 -5.28052,-0.97632 -8.0625,-0.97632c-19.26392,0 -34.9375,15.67358 -34.9375,34.9375c0,4.75561 0.96582,9.30127 2.698,13.4375h-96.7605c-1.48022,0 -2.6875,-1.20728 -2.6875,-2.6875zM40.3125,48.375c-0.68237,0 -1.37524,0.26245 -1.90015,0.78735l-8.84985,8.84985l-3.47485,-3.47485c-1.0498,-1.0498 -2.75049,-1.0498 -3.80029,0c-1.0498,1.0498 -1.0498,2.75049 0,3.80029l5.375,5.375c0.5249,0.5249 1.20728,0.78735 1.90015,0.78735c0.69287,0 1.37524,-0.26245 1.90015,-0.78735l10.75,-10.75c1.0498,-1.0498 1.0498,-2.75049 0,-3.80029c-0.5249,-0.5249 -1.21777,-0.78735 -1.90015,-0.78735zM51.0625,53.75c-1.49072,0 -2.6875,1.19678 -2.6875,2.6875c0,1.49072 1.19678,2.6875 2.6875,2.6875h10.75c1.49072,0 2.6875,-1.19678 2.6875,-2.6875c0,-1.49072 -1.19678,-2.6875 -2.6875,-2.6875zM72.5625,53.75c-1.49072,0 -2.6875,1.19678 -2.6875,2.6875c0,1.49072 1.19678,2.6875 2.6875,2.6875h45.6875c1.49072,0 2.6875,-1.19678 2.6875,-2.6875c0,-1.49072 -1.19678,-2.6875 -2.6875,-2.6875zM40.3125,69.875c-0.68237,0 -1.37524,0.26245 -1.90015,0.78735l-8.84985,8.84985l-3.47485,-3.47485c-1.0498,-1.0498 -2.75049,-1.0498 -3.80029,0c-1.0498,1.0498 -1.0498,2.75049 0,3.80029l5.375,5.375c0.5249,0.5249 1.20728,0.78735 1.90015,0.78735c0.69287,0 1.37524,-0.26245 1.90015,-0.78735l10.75,-10.75c1.0498,-1.0498 1.0498,-2.75049 0,-3.80029c-0.5249,-0.5249 -1.21777,-0.78735 -1.90015,-0.78735zM51.0625,75.25c-1.49072,0 -2.6875,1.19678 -2.6875,2.6875c0,1.49072 1.19678,2.6875 2.6875,2.6875h67.1875c1.49072,0 2.6875,-1.19678 2.6875,-2.6875c0,-1.49072 -1.19678,-2.6875 -2.6875,-2.6875zM40.3125,91.375c-0.68237,0 -1.37524,0.26245 -1.90015,0.78735l-8.84985,8.84985l-3.47485,-3.47485c-1.0498,-1.0498 -2.75049,-1.0498 -3.80029,0c-1.0498,1.0498 -1.0498,2.75049 0,3.80029l5.375,5.375c0.5249,0.5249 1.20728,0.78735 1.90015,0.78735c0.69287,0 1.37524,-0.26245 1.90015,-0.78735l10.75,-10.75c1.0498,-1.0498 1.0498,-2.75049 0,-3.80029c-0.5249,-0.5249 -1.21777,-0.78735 -1.90015,-0.78735zM51.0625,96.75c-1.49072,0 -2.6875,1.19678 -2.6875,2.6875c0,1.49072 1.19678,2.6875 2.6875,2.6875h40.3125c1.49072,0 2.6875,-1.19678 2.6875,-2.6875c0,-1.49072 -1.19678,-2.6875 -2.6875,-2.6875zM137.0625,96.75c16.30347,0 29.5625,13.25903 29.5625,29.5625c0,16.30347 -13.25903,29.5625 -29.5625,29.5625c-16.30347,0 -29.5625,-13.25903 -29.5625,-29.5625c0,-16.30347 13.25903,-29.5625 29.5625,-29.5625zM137.0625,107.5c-1.49072,0 -2.6875,1.19678 -2.6875,2.6875v13.4375h-13.4375c-1.49072,0 -2.6875,1.19678 -2.6875,2.6875c0,1.49072 1.19678,2.6875 2.6875,2.6875h13.4375v13.4375c0,1.49072 1.19678,2.6875 2.6875,2.6875c1.49072,0 2.6875,-1.19678 2.6875,-2.6875v-13.4375h13.4375c1.49072,0 2.6875,-1.19678 2.6875,-2.6875c0,-1.49072 -1.19678,-2.6875 -2.6875,-2.6875h-13.4375v-13.4375c0,-1.49072 -1.19678,-2.6875 -2.6875,-2.6875zM16.125,123.625c-1.49072,0 -2.6875,1.19678 -2.6875,2.6875v5.375c0,1.49072 1.19678,2.6875 2.6875,2.6875c1.49072,0 2.6875,-1.19678 2.6875,-2.6875v-5.375c0,-1.49072 -1.19678,-2.6875 -2.6875,-2.6875zM29.5625,123.625c-1.49072,0 -2.6875,1.19678 -2.6875,2.6875v5.375c0,1.49072 1.19678,2.6875 2.6875,2.6875c1.49072,0 2.6875,-1.19678 2.6875,-2.6875v-5.375c0,-1.49072 -1.19678,-2.6875 -2.6875,-2.6875zM43,123.625c-1.49072,0 -2.6875,1.19678 -2.6875,2.6875v5.375c0,1.49072 1.19678,2.6875 2.6875,2.6875c1.49072,0 2.6875,-1.19678 2.6875,-2.6875v-5.375c0,-1.49072 -1.19678,-2.6875 -2.6875,-2.6875zM56.4375,123.625c-1.49072,0 -2.6875,1.19678 -2.6875,2.6875v5.375c0,1.49072 1.19678,2.6875 2.6875,2.6875c1.49072,0 2.6875,-1.19678 2.6875,-2.6875v-5.375c0,-1.49072 -1.19678,-2.6875 -2.6875,-2.6875zM69.875,123.625c-1.49072,0 -2.6875,1.19678 -2.6875,2.6875v5.375c0,1.49072 1.19678,2.6875 2.6875,2.6875c1.49072,0 2.6875,-1.19678 2.6875,-2.6875v-5.375c0,-1.49072 -1.19678,-2.6875 -2.6875,-2.6875zM83.3125,123.625c-1.49072,0 -2.6875,1.19678 -2.6875,2.6875v5.375c0,1.49072 1.19678,2.6875 2.6875,2.6875c1.49072,0 2.6875,-1.19678 2.6875,-2.6875v-5.375c0,-1.49072 -1.19678,-2.6875 -2.6875,-2.6875zM96.75,123.625c-1.49072,0 -2.6875,1.19678 -2.6875,2.6875v5.375c0,1.49072 1.19678,2.6875 2.6875,2.6875c1.49072,0 2.6875,-1.19678 2.6875,-2.6875v-5.375c0,-1.49072 -1.19678,-2.6875 -2.6875,-2.6875z"></path></g></g></svg>