<svg xmlns="http://www.w3.org/2000/svg" x="0px" y="0px"
width="25px" height="25px"
viewBox="0 0 172 172"
style=" fill:#000000;"><g fill="none" fill-rule="nonzero" stroke="none" stroke-width="1" stroke-linecap="butt" stroke-linejoin="miter" stroke-miterlimit="10" stroke-dasharray="" stroke-dashoffset="0" font-family="none" font-weight="none" font-size="none" text-anchor="none" style="mix-blend-mode: normal"><path d="M0,172v-172h172v172z" fill="none"></path><g fill="#f97646"><path d="M0,0v55.04h55.04v-55.04zM6.88,6.88h41.28v27.6275l-7.31,-6.9875l-1.8275,-1.6125l-2.15,1.075l-6.235,3.225l-9.245,-11.0725l-2.2575,-2.6875l-2.58,2.2575l-9.675,8.2775zM39.56,10.32c-2.84875,0 -5.16,2.31125 -5.16,5.16c0,2.84875 2.31125,5.16 5.16,5.16c2.84875,0 5.16,-2.31125 5.16,-5.16c0,-2.84875 -2.31125,-5.16 -5.16,-5.16zM71.2725,13.76c-1.89469,0.26875 -3.225,2.02906 -2.95625,3.92375c0.26875,1.89469 2.02906,3.225 3.92375,2.95625h96.32c1.23625,0.01344 2.39188,-0.63156 3.02344,-1.70656c0.61813,-1.075 0.61813,-2.39187 0,-3.46687c-0.63156,-1.075 -1.78719,-1.72 -3.02344,-1.70656h-96.32c-0.1075,0 -0.215,0 -0.3225,0c-0.1075,0 -0.215,0 -0.3225,0c-0.1075,0 -0.215,0 -0.3225,0zM18.3825,26.23l8.7075,10.4275l1.72,2.0425l2.4725,-1.1825l6.5575,-3.3325l10.32,9.7825v4.1925h-41.28v-12.04zM71.2725,34.4c-1.89469,0.26875 -3.225,2.02906 -2.95625,3.92375c0.26875,1.89469 2.02906,3.225 3.92375,2.95625h96.32c1.23625,0.01344 2.39188,-0.63156 3.02344,-1.70656c0.61813,-1.075 0.61813,-2.39187 0,-3.46687c-0.63156,-1.075 -1.78719,-1.72 -3.02344,-1.70656h-96.32c-0.1075,0 -0.215,0 -0.3225,0c-0.1075,0 -0.215,0 -0.3225,0c-0.1075,0 -0.215,0 -0.3225,0zM0,58.48v55.04h55.04v-55.04zM6.88,65.36h41.28v41.28h-41.28zM32.3575,68.8c-0.38969,-0.01344 -0.80625,0.05375 -1.1825,0.1075c-1.51844,0.20156 -2.92937,0.84656 -3.9775,1.3975c-0.94062,0.49719 -1.00781,0.61813 -1.6125,1.075c-0.95406,-0.47031 -1.84094,-1.04812 -3.3325,-1.29c-2.10969,-0.34937 -5.03906,0.05375 -7.2025,2.15c-2.71437,2.64719 -2.72781,6.24844 -2.2575,8.6c0.20156,0.99438 0.37625,1.02125 0.645,1.72c-0.49719,0.52406 -0.645,0.49719 -1.1825,1.29c-1.31687,1.94844 -2.795,5.13313 -1.505,8.6c0.65844,1.77375 2.00219,3.10406 3.3325,3.87c2.27094,1.30344 4.46125,1.57219 6.1275,1.505c0.88688,1.37063 2.27094,2.96969 4.4075,4.1925c1.15563,0.65844 2.66063,1.16906 4.3,1.075c1.935,-0.1075 3.53406,-1.08844 4.6225,-2.15c1.08844,-1.06156 1.73344,-2.2575 2.2575,-3.3325c0.49719,-1.02125 0.52406,-1.1825 0.7525,-1.935c0.72563,-0.14781 0.87344,-0.06719 1.8275,-0.43c2.20375,-0.81969 5.20031,-2.52625 6.1275,-6.1275c0.86,-3.3325 -0.80625,-6.08719 -2.365,-7.74c-0.92719,-0.98094 -1.49156,-1.30344 -2.2575,-1.8275c0.09406,-0.76594 0.14781,-0.87344 0.1075,-1.935c-0.09406,-2.365 -0.68531,-5.85875 -3.9775,-7.74c-1.23625,-0.71219 -2.4725,-1.04812 -3.655,-1.075zM71.2725,72.24c-1.89469,0.26875 -3.225,2.02906 -2.95625,3.92375c0.26875,1.89469 2.02906,3.225 3.92375,2.95625h96.32c1.23625,0.01344 2.39188,-0.63156 3.02344,-1.70656c0.61813,-1.075 0.61813,-2.39187 0,-3.46687c-0.63156,-1.075 -1.78719,-1.72 -3.02344,-1.70656h-96.32c-0.1075,0 -0.215,0 -0.3225,0c-0.1075,0 -0.215,0 -0.3225,0c-0.1075,0 -0.215,0 -0.3225,0zM31.82,75.7875c0.37625,-0.06719 0.65844,-0.05375 0.7525,0c0.17469,0.1075 0.48375,0.83313 0.5375,2.15c0.05375,1.31688 -0.1075,2.4725 -0.1075,2.4725l-0.645,2.6875l2.4725,1.1825c0.34938,0.20156 1.505,1.02125 2.2575,1.8275c0.7525,0.80625 0.80625,1.10188 0.7525,1.29c-0.09406,0.36281 -0.61812,0.95406 -1.8275,1.3975c-1.20937,0.44344 -2.365,0.5375 -2.365,0.5375l-2.58,0.215l-0.5375,2.58c0,0 -0.25531,1.24969 -0.86,2.4725c-0.29562,0.61813 -0.71219,1.15563 -0.9675,1.3975c-0.25531,0.24188 -0.22844,0.215 -0.215,0.215c-0.06719,0 -0.13437,0.05375 -0.43,-0.1075c-1.03469,-0.59125 -2.795,-3.44 -2.795,-3.44l-1.1825,-2.4725l-2.58,0.5375c0,0 -3.19812,0.01344 -3.9775,-0.43c-0.14781,-0.08062 -0.26875,-0.08062 -0.3225,-0.215c-0.20156,-0.55094 0.06719,-1.34375 0.7525,-2.365c0.68531,-1.02125 1.505,-1.8275 1.505,-1.8275l2.15,-1.8275l-1.3975,-2.4725c0,0 -0.51062,-0.98094 -0.7525,-2.15c-0.24187,-1.16906 -0.09406,-1.74687 0.43,-2.2575c0.33594,-0.33594 0.49719,-0.45687 1.29,-0.3225c0.79281,0.13438 1.78719,0.63156 2.365,0.9675h0.1075c0.33594,0.18813 0.43,0.3225 0.43,0.3225l2.2575,1.6125l2.0425,-1.935c0,0 0.87344,-0.88687 2.0425,-1.505c0.57781,-0.30906 1.02125,-0.47031 1.3975,-0.5375zM29.7775,79.335c-1.55875,0.40313 -2.58,5.0525 -2.58,5.0525c0,0 -2.43219,-5.54969 -4.1925,-4.085c-1.76031,1.46469 3.655,4.6225 3.655,4.6225c0,0 -5.97969,0.67188 -5.2675,2.6875c0.71219,2.01563 5.59,-2.0425 5.59,-2.0425c0,0 -1.29,6.16781 0.9675,5.805c2.2575,-0.36281 -0.215,-5.9125 -0.215,-5.9125c0,0 5.46906,3.13094 5.805,0.86c0.33594,-2.2575 -5.6975,-1.505 -5.6975,-1.505c0,0 4.54188,-4.25969 2.58,-5.375c-0.24187,-0.13437 -0.41656,-0.16125 -0.645,-0.1075zM71.2725,92.88c-1.89469,0.26875 -3.225,2.02906 -2.95625,3.92375c0.26875,1.89469 2.02906,3.225 3.92375,2.95625h96.32c1.23625,0.01344 2.39188,-0.63156 3.02344,-1.70656c0.61813,-1.075 0.61813,-2.39187 0,-3.46687c-0.63156,-1.075 -1.78719,-1.72 -3.02344,-1.70656h-96.32c-0.1075,0 -0.215,0 -0.3225,0c-0.1075,0 -0.215,0 -0.3225,0c-0.1075,0 -0.215,0 -0.3225,0zM0,116.96v55.04h55.04v-55.04zM6.88,123.84h41.28v41.28h-41.28zM27.52,128.4625c0,0 -1.92156,5.77813 -3.7625,6.5575c-1.84094,0.77938 -7.6325,-1.935 -7.6325,-1.935c0,0 2.55313,5.75125 1.935,7.6325c-0.44344,1.34375 -6.5575,3.7625 -6.5575,3.7625c0,0 5.92594,2.15 6.3425,3.7625c0.61813,2.39188 -1.72,7.6325 -1.72,7.6325c0,0 5.44219,-2.98312 7.2025,-2.0425c1.76031,0.94063 4.1925,6.665 4.1925,6.665c0,0 1.92156,-5.77812 3.7625,-6.5575c1.84094,-0.77937 7.6325,1.935 7.6325,1.935c0,0 -2.59344,-5.75125 -1.935,-7.6325c0.51063,-1.46469 6.5575,-3.7625 6.5575,-3.7625c0,0 -5.85875,-2.29781 -6.3425,-3.7625c-0.77937,-2.35156 1.72,-7.6325 1.72,-7.6325c0,0 -5.44219,2.98313 -7.2025,2.0425c-1.76031,-0.94062 -4.1925,-6.665 -4.1925,-6.665zM71.2725,130.72c-1.89469,0.26875 -3.225,2.02906 -2.95625,3.92375c0.26875,1.89469 2.02906,3.225 3.92375,2.95625h96.32c1.23625,0.01344 2.39188,-0.63156 3.02344,-1.70656c0.61813,-1.075 0.61813,-2.39187 0,-3.46687c-0.63156,-1.075 -1.78719,-1.72 -3.02344,-1.70656h-96.32c-0.1075,0 -0.215,0 -0.3225,0c-0.1075,0 -0.215,0 -0.3225,0c-0.1075,0 -0.215,0 -0.3225,0zM27.52,139.4275c2.795,0 5.0525,2.2575 5.0525,5.0525c0,2.795 -2.2575,5.0525 -5.0525,5.0525c-2.795,0 -5.0525,-2.2575 -5.0525,-5.0525c0,-2.795 2.2575,-5.0525 5.0525,-5.0525zM71.2725,151.36c-1.89469,0.26875 -3.225,2.02906 -2.95625,3.92375c0.26875,1.89469 2.02906,3.225 3.92375,2.95625h96.32c1.23625,0.01344 2.39188,-0.63156 3.02344,-1.70656c0.61813,-1.075 0.61813,-2.39187 0,-3.46687c-0.63156,-1.075 -1.78719,-1.72 -3.02344,-1.70656h-96.32c-0.1075,0 -0.215,0 -0.3225,0c-0.1075,0 -0.215,0 -0.3225,0c-0.1075,0 -0.215,0 -0.3225,0z"></path></g></g></svg>