<svg xmlns="http://www.w3.org/2000/svg" x="0px" y="0px"
width="25px" height="25px"
viewBox="0 0 172 172"
style=" fill:#000000;"><g fill="none" fill-rule="nonzero" stroke="none" stroke-width="1" stroke-linecap="butt" stroke-linejoin="miter" stroke-miterlimit="10" stroke-dasharray="" stroke-dashoffset="0" font-family="none" font-weight="none" font-size="none" text-anchor="none" style="mix-blend-mode: normal"><path d="M0,172v-172h172v172z" fill="none"></path><g fill="#f97646"><path d="M22.93333,28.66667c-6.33287,0 -11.46667,5.1338 -11.46667,11.46667c0,6.33287 5.1338,11.46667 11.46667,11.46667c6.33287,0 11.46667,-5.1338 11.46667,-11.46667c0,-6.33287 -5.1338,-11.46667 -11.46667,-11.46667zM57.33333,34.4c-2.06765,-0.02924 -3.99087,1.05709 -5.03322,2.843c-1.04236,1.78592 -1.04236,3.99474 0,5.78066c1.04236,1.78592 2.96558,2.87225 5.03322,2.843h97.46667c2.06765,0.02924 3.99087,-1.05709 5.03322,-2.843c1.04236,-1.78592 1.04236,-3.99474 0,-5.78066c-1.04236,-1.78592 -2.96558,-2.87225 -5.03322,-2.843zM22.93333,74.53333c-6.33287,0 -11.46667,5.1338 -11.46667,11.46667c0,6.33287 5.1338,11.46667 11.46667,11.46667c6.33287,0 11.46667,-5.1338 11.46667,-11.46667c0,-6.33287 -5.1338,-11.46667 -11.46667,-11.46667zM57.33333,80.26667c-3.17053,0 -5.73333,2.5628 -5.73333,5.73333c0,3.17053 2.5628,5.73333 5.73333,5.73333h42.13776c8.858,-7.16093 20.12051,-11.46667 32.39558,-11.46667zM131.86667,91.73333c-22.16507,0 -40.13333,17.96827 -40.13333,40.13333c0,22.16507 17.96827,40.13333 40.13333,40.13333c22.16507,0 40.13333,-17.96827 40.13333,-40.13333c0,-22.16507 -17.96827,-40.13333 -40.13333,-40.13333zM131.86667,108.93333c3.1648,0 5.73333,2.5628 5.73333,5.73333v11.46667h11.46667c3.1648,0 5.73333,2.5628 5.73333,5.73333c0,3.17053 -2.56853,5.73333 -5.73333,5.73333h-11.46667v11.46667c0,3.17053 -2.56853,5.73333 -5.73333,5.73333c-3.1648,0 -5.73333,-2.5628 -5.73333,-5.73333v-11.46667h-11.46667c-3.1648,0 -5.73333,-2.5628 -5.73333,-5.73333c0,-3.17053 2.56853,-5.73333 5.73333,-5.73333h11.46667v-11.46667c0,-3.17053 2.56853,-5.73333 5.73333,-5.73333zM22.93333,120.4c-6.33287,0 -11.46667,5.1338 -11.46667,11.46667c0,6.33287 5.1338,11.46667 11.46667,11.46667c6.33287,0 11.46667,-5.1338 11.46667,-11.46667c0,-6.33287 -5.1338,-11.46667 -11.46667,-11.46667zM57.33333,126.13333c-3.17053,0 -5.73333,2.5628 -5.73333,5.73333c0,3.17053 2.5628,5.73333 5.73333,5.73333h23.26927c-0.21213,-1.88627 -0.33594,-3.79547 -0.33594,-5.73333c0,-1.93787 0.12381,-3.84707 0.33594,-5.73333z"></path></g></g></svg>