<svg xmlns="http://www.w3.org/2000/svg" x="0px" y="0px"
    width="25" height="25"
    viewBox="0 0 172 172"
    style=" fill:#F97646;"><g fill="#F97646" fill-rule="nonzero" stroke="none" stroke-width="1" stroke-linecap="butt" stroke-linejoin="miter" stroke-miterlimit="10" stroke-dasharray="" stroke-dashoffset="0" font-family="none" font-weight="none" font-size="none" text-anchor="none" style="mix-blend-mode: normal"><path d="M0,172v-172h172v172z" fill="none"></path><g fill="#F97646"><path d="M75.43897,5.375c-2.698,0 -5.20703,1.34375 -6.70825,3.59033l-8.35645,12.53467h-30.81177c-4.44067,0 -8.0625,3.62183 -8.0625,8.0625v16.125c0,4.44067 3.62183,8.0625 8.0625,8.0625h0.26245l9.49023,90.09424c0.71387,6.86572 6.4668,12.03076 13.36402,12.03076h66.6521c6.88672,0 12.62915,-5.16504 13.35352,-12.03076l9.49023,-90.09424h0.26245c4.44067,0 8.0625,-3.62183 8.0625,-8.0625v-16.125c0,-4.44067 -3.62183,-8.0625 -8.0625,-8.0625h-30.81177l-8.35645,-12.53467c-1.50122,-2.24658 -4.01025,-3.59033 -6.70825,-3.59033zM75.43897,10.75h21.12207c0.90283,0 1.73218,0.45142 2.23608,1.19678l6.37232,9.55322h-38.33887l6.37231,-9.55322c0.50391,-0.74536 1.33325,-1.19678 2.23609,-1.19678zM29.5625,26.875h112.875c1.48022,0 2.6875,1.20728 2.6875,2.6875v16.125c0,1.48022 -1.20728,2.6875 -2.6875,2.6875h-110.1875c-0.06299,0 -0.10498,0.03149 -0.16797,0.04199c-0.05249,-0.0105 -0.10498,-0.04199 -0.16797,-0.04199h-2.35156c-1.48022,0 -2.6875,-1.20728 -2.6875,-2.6875v-16.125c0,-1.48022 1.20728,-2.6875 2.6875,-2.6875zM37.625,32.25c-1.49072,0 -2.6875,1.20728 -2.6875,2.6875v5.375c0,1.48022 1.19678,2.6875 2.6875,2.6875c1.49072,0 2.6875,-1.20728 2.6875,-2.6875v-5.375c0,-1.48022 -1.19678,-2.6875 -2.6875,-2.6875zM51.0625,32.25c-1.49072,0 -2.6875,1.20728 -2.6875,2.6875v5.375c0,1.48022 1.19678,2.6875 2.6875,2.6875c1.49072,0 2.6875,-1.20728 2.6875,-2.6875v-5.375c0,-1.48022 -1.19678,-2.6875 -2.6875,-2.6875zM64.5,32.25c-1.49072,0 -2.6875,1.20728 -2.6875,2.6875v5.375c0,1.48022 1.19678,2.6875 2.6875,2.6875c1.49072,0 2.6875,-1.20728 2.6875,-2.6875v-5.375c0,-1.48022 -1.19678,-2.6875 -2.6875,-2.6875zM77.9375,32.25c-1.49072,0 -2.6875,1.20728 -2.6875,2.6875v5.375c0,1.48022 1.19678,2.6875 2.6875,2.6875c1.49072,0 2.6875,-1.20728 2.6875,-2.6875v-5.375c0,-1.48022 -1.19678,-2.6875 -2.6875,-2.6875zM94.0625,32.25c-1.49072,0 -2.6875,1.20728 -2.6875,2.6875v5.375c0,1.48022 1.19678,2.6875 2.6875,2.6875c1.49072,0 2.6875,-1.20728 2.6875,-2.6875v-5.375c0,-1.48022 -1.19678,-2.6875 -2.6875,-2.6875zM107.5,32.25c-1.49072,0 -2.6875,1.20728 -2.6875,2.6875v5.375c0,1.48022 1.19678,2.6875 2.6875,2.6875c1.49072,0 2.6875,-1.20728 2.6875,-2.6875v-5.375c0,-1.48022 -1.19678,-2.6875 -2.6875,-2.6875zM120.9375,32.25c-1.49072,0 -2.6875,1.20728 -2.6875,2.6875v5.375c0,1.48022 1.19678,2.6875 2.6875,2.6875c1.49072,0 2.6875,-1.20728 2.6875,-2.6875v-5.375c0,-1.48022 -1.19678,-2.6875 -2.6875,-2.6875zM134.375,32.25c-1.49072,0 -2.6875,1.20728 -2.6875,2.6875v5.375c0,1.48022 1.19678,2.6875 2.6875,2.6875c1.49072,0 2.6875,-1.20728 2.6875,-2.6875v-5.375c0,-1.48022 -1.19678,-2.6875 -2.6875,-2.6875zM35.23145,53.75h101.53711l-9.42724,89.52734c-0.43042,4.12573 -3.88428,7.22266 -8.02051,7.22266h-66.6416c-4.13623,0 -7.59009,-3.09692 -8.02051,-7.22266zM63.19824,67.1875c-0.68237,0 -1.37524,0.26245 -1.90015,0.78735c-1.0498,1.0498 -1.0498,2.75049 0,3.80029l20.90161,20.90161l-20.90161,20.91211c-1.0498,1.0498 -1.0498,2.73999 0,3.78979c0.5249,0.5249 1.20728,0.78735 1.90015,0.78735c0.69287,0 1.37524,-0.26245 1.90015,-0.78735l20.90161,-20.90161l20.90161,20.90161c0.5249,0.5249 1.20728,0.78735 1.90015,0.78735c0.69287,0 1.37524,-0.26245 1.90015,-0.78735c1.0498,-1.0498 1.0498,-2.73999 0,-3.78979l-20.90161,-20.91211l20.90161,-20.90161c1.0498,-1.0498 1.0498,-2.75049 0,-3.80029c-1.0498,-1.0498 -2.75049,-1.0498 -3.80029,0l-20.90161,20.90161l-20.90161,-20.90161c-0.5249,-0.5249 -1.21777,-0.78735 -1.90015,-0.78735zM56.4375,139.75c-1.49072,0 -2.6875,1.20728 -2.6875,2.6875c0,1.48022 1.19678,2.6875 2.6875,2.6875h37.625c1.49072,0 2.6875,-1.20728 2.6875,-2.6875c0,-1.48022 -1.19678,-2.6875 -2.6875,-2.6875zM104.8125,139.75c-1.49072,0 -2.6875,1.20728 -2.6875,2.6875c0,1.48022 1.19678,2.6875 2.6875,2.6875h10.75c1.49072,0 2.6875,-1.20728 2.6875,-2.6875c0,-1.48022 -1.19678,-2.6875 -2.6875,-2.6875z"></path></g></g></svg>