<?xml version="1.0" encoding="UTF-8" standalone="yes"?>
<svg xmlns="http://www.w3.org/2000/svg" viewBox="15 15 70 70" width="15px" height="15px" fill="#F97646">
  <path d="M 19 18 C 18.448 18 18 18.447 18 19 L 18 81 C 18 81.553 18.448 82 19 82 L 81 82 C 81.553 82 82 81.553 82 81 L 82 19 C 82 18.447 81.553 18 81 18 L 19 18 z M 20 20 L 80 20 L 80 80 L 20 80 L 20 20 z M 25.5 32 C 25.224 32 25 32.224 25 32.5 L 25 37.5 C 25 37.776 25.224 38 25.5 38 L 74.5 38 C 74.776 38 75 37.776 75 37.5 L 75 32.5 C 75 32.224 74.776 32 74.5 32 L 70.5 32 C 70.224 32 70 32.224 70 32.5 C 70 32.776 70.224 33 70.5 33 L 74 33 L 74 37 L 26 37 L 26 33 L 61.5 33 C 61.776 33 62 32.776 62 32.5 C 62 32.224 61.776 32 61.5 32 L 25.5 32 z M 63.5 32 C 63.224 32 63 32.224 63 32.5 C 63 32.776 63.224 33 63.5 33 L 67.5 33 C 67.776 33 68 32.776 68 32.5 C 68 32.224 67.776 32 67.5 32 L 63.5 32 z M 25.5 42 C 25.224 42 25 42.224 25 42.5 L 25 47.5 C 25 47.776 25.224 48 25.5 48 L 69.5 48 C 69.776 48 70 47.776 70 47.5 L 70 42.5 C 70 42.224 69.776 42 69.5 42 L 37.5 42 C 37.224 42 37 42.224 37 42.5 C 37 42.776 37.224 43 37.5 43 L 69 43 L 69 47 L 26 47 L 26 43 L 32.5 43 C 32.776 43 33 42.776 33 42.5 C 33 42.224 32.776 42 32.5 42 L 25.5 42 z M 25.5 52 C 25.224 52 25 52.224 25 52.5 L 25 57.5 C 25 57.776 25.224 58 25.5 58 L 49.5 58 C 49.776 58 50 57.776 50 57.5 C 50 57.224 49.776 57 49.5 57 L 26 57 L 26 53 L 63 53 L 63 57 L 57.5 57 C 57.224 57 57 57.224 57 57.5 C 57 57.776 57.224 58 57.5 58 L 63.5 58 C 63.776 58 64 57.776 64 57.5 L 64 52.5 C 64 52.224 63.776 52 63.5 52 L 25.5 52 z M 51.5 57 C 51.224 57 51 57.224 51 57.5 C 51 57.776 51.224 58 51.5 58 L 54.5 58 C 54.776 58 55 57.776 55 57.5 C 55 57.224 54.776 57 54.5 57 L 51.5 57 z M 25.5 62 C 25.224 62 25 62.224 25 62.5 L 25 67.5 C 25 67.776 25.224 68 25.5 68 L 33.5 68 C 33.776 68 34 67.776 34 67.5 C 34 67.224 33.776 67 33.5 67 L 26 67 L 26 63 L 72 63 L 72 67 L 39.5 67 C 39.224 67 39 67.224 39 67.5 C 39 67.776 39.224 68 39.5 68 L 72.5 68 C 72.776 68 73 67.776 73 67.5 L 73 62.5 C 73 62.224 72.776 62 72.5 62 L 25.5 62 z"/>
</svg>
