<?xml version="1.0" standalone="no"?>
<!DOCTYPE svg PUBLIC "-//W3C//DTD SVG 20010904//EN"
 "http://www.w3.org/TR/2001/REC-SVG-20010904/DTD/svg10.dtd">
<svg version="1.0" xmlns="http://www.w3.org/2000/svg"
 width="15px" height="15px" viewBox="0 0 100.000000 100.000000"
 preserveAspectRatio="xMidYMid meet">
<metadata>
Created by potrace 1.15, written by Peter Selinger 2001-2017
</metadata>
<g transform="translate(0.000000,100.000000) scale(0.100000,-0.100000)"
fill="#f97626" stroke="none">
<path d="M20 900 c-13 -13 -20 -33 -20 -60 0 -53 27 -80 80 -80 53 0 80 27 80
80 0 53 -27 80 -80 80 -27 0 -47 -7 -60 -20z"/>
<path d="M240 840 c0 -20 7 -20 380 -20 373 0 380 0 380 20 0 20 -7 20 -380
20 -373 0 -380 0 -380 -20z"/>
<path d="M20 560 c-13 -13 -20 -33 -20 -60 0 -53 27 -80 80 -80 53 0 80 27 80
80 0 53 -27 80 -80 80 -27 0 -47 -7 -60 -20z"/>
<path d="M240 500 c0 -20 7 -20 380 -20 373 0 380 0 380 20 0 20 -7 20 -380
20 -373 0 -380 0 -380 -20z"/>
<path d="M20 220 c-13 -13 -20 -33 -20 -60 0 -27 7 -47 20 -60 13 -13 33 -20
60 -20 53 0 80 27 80 80 0 27 -7 47 -20 60 -13 13 -33 20 -60 20 -27 0 -47 -7
-60 -20z"/>
<path d="M240 160 c0 -20 7 -20 380 -20 373 0 380 0 380 20 0 20 -7 20 -380
20 -373 0 -380 0 -380 -20z"/>
</g>
</svg>
