<svg xmlns="http://www.w3.org/2000/svg" x="0px" y="0px"
width="30px" height="30px"
viewBox="0 0 172 172"
style=" fill:#000000;"><g fill="none" fill-rule="nonzero" stroke="none" stroke-width="1" stroke-linecap="butt" stroke-linejoin="miter" stroke-miterlimit="10" stroke-dasharray="" stroke-dashoffset="0" font-family="none" font-weight="none" font-size="none" text-anchor="none" style="mix-blend-mode: normal"><path d="M0,172v-172h172v172z" fill="none"></path><g fill="#F97646"><path d="M24.1875,2.6875c-10.37375,0 -18.8125,8.44144 -18.8125,18.8125v2.6875v2.6875v96.75v2.6875c0,9.116 6.52193,16.73313 15.14343,18.44507c3.01537,6.69188 9.67563,11.11743 17.10657,11.11743h120.9375c4.44513,0 8.0625,-3.61737 8.0625,-8.0625v-96.75c0,-4.44512 -3.61737,-8.0625 -8.0625,-8.0625h-2.6875v-2.6875c0,-4.44512 -3.61737,-8.0625 -8.0625,-8.0625h-104.8125v-10.75c0,-10.37106 -8.43875,-18.8125 -18.8125,-18.8125zM24.1875,8.0625c7.40944,0 13.4375,6.02806 13.4375,13.4375v88.98669c-3.4185,-3.49644 -8.17537,-5.67419 -13.4375,-5.67419c-5.26213,0 -10.019,2.17776 -13.4375,5.67419v-83.61169v-2.6875v-2.6875c0,-7.40944 6.02806,-13.4375 13.4375,-13.4375zM43,37.625h104.8125c1.48081,0 2.6875,1.204 2.6875,2.6875v96.75c0,1.4835 -1.20669,2.6875 -2.6875,2.6875h-123.625c-7.40944,0 -13.4375,-6.02806 -13.4375,-13.4375v-2.6875c0,-7.40944 6.02806,-13.4375 13.4375,-13.4375c7.40944,0 13.4375,6.02806 13.4375,13.4375v2.6875c0,1.48619 1.204,2.6875 2.6875,2.6875c1.4835,0 2.6875,-1.20131 2.6875,-2.6875zM137.0625,45.6875c-1.4835,0 -2.6875,1.20131 -2.6875,2.6875c0,1.48619 1.204,2.6875 2.6875,2.6875h5.375c1.4835,0 2.6875,-1.20131 2.6875,-2.6875c0,-1.48619 -1.204,-2.6875 -2.6875,-2.6875zM155.875,48.375h2.6875c1.48081,0 2.6875,1.204 2.6875,2.6875v96.75c0,1.4835 -1.20669,2.6875 -2.6875,2.6875h-120.9375c-4.29731,0 -8.2455,-2.05863 -10.7395,-5.375h120.927c4.44513,0 8.0625,-3.61737 8.0625,-8.0625zM99.4375,59.125c-1.4835,0 -2.6875,1.20131 -2.6875,2.6875c0,1.48619 1.204,2.6875 2.6875,2.6875h9.63721l-23.07471,23.07471l-8.84985,-8.84985c-1.05081,-1.05081 -2.74948,-1.05081 -3.80029,0l-18.8125,18.8125c-1.05081,1.05081 -1.05081,2.74948 0,3.80029c0.52406,0.52406 1.21215,0.78735 1.90015,0.78735c0.688,0 1.37608,-0.26329 1.90015,-0.78735l16.91235,-16.91235l8.84985,8.84985c1.05081,1.05081 2.74948,1.05081 3.80029,0l24.97485,-24.97485v9.63721c0,1.48619 1.204,2.6875 2.6875,2.6875c1.4835,0 2.6875,-1.20131 2.6875,-2.6875v-16.125c0,-0.03494 -0.021,-0.06479 -0.02099,-0.09973c-0.01075,-0.31444 -0.05741,-0.62808 -0.18372,-0.92908c0,-0.00269 -0.00256,-0.00781 -0.00525,-0.0105c-0.01075,-0.02419 -0.03124,-0.0388 -0.04199,-0.06299c-0.12094,-0.26875 -0.28416,-0.50424 -0.47766,-0.71387c-0.0645,-0.06988 -0.13484,-0.1219 -0.20471,-0.18372c-0.172,-0.1505 -0.35484,-0.2758 -0.5564,-0.37793c-0.086,-0.043 -0.16583,-0.08579 -0.2572,-0.12073c-0.29831,-0.11019 -0.60901,-0.18896 -0.93957,-0.18896zM137.0625,59.125c-1.4835,0 -2.6875,1.20131 -2.6875,2.6875c0,1.48619 1.204,2.6875 2.6875,2.6875h5.375c1.4835,0 2.6875,-1.20131 2.6875,-2.6875c0,-1.48619 -1.204,-2.6875 -2.6875,-2.6875zM137.0625,72.5625c-1.4835,0 -2.6875,1.20131 -2.6875,2.6875c0,1.48619 1.204,2.6875 2.6875,2.6875h5.375c1.4835,0 2.6875,-1.20131 2.6875,-2.6875c0,-1.48619 -1.204,-2.6875 -2.6875,-2.6875zM137.0625,86c-1.4835,0 -2.6875,1.20131 -2.6875,2.6875c0,1.48619 1.204,2.6875 2.6875,2.6875h5.375c1.4835,0 2.6875,-1.20131 2.6875,-2.6875c0,-1.48619 -1.204,-2.6875 -2.6875,-2.6875zM137.0625,99.4375c-1.4835,0 -2.6875,1.20131 -2.6875,2.6875c0,1.48619 1.204,2.6875 2.6875,2.6875h5.375c1.4835,0 2.6875,-1.20131 2.6875,-2.6875c0,-1.48619 -1.204,-2.6875 -2.6875,-2.6875zM51.0625,107.5c-1.4835,0 -2.6875,1.20131 -2.6875,2.6875c0,1.48619 1.204,2.6875 2.6875,2.6875h69.875c1.4835,0 2.6875,-1.20131 2.6875,-2.6875c0,-1.48619 -1.204,-2.6875 -2.6875,-2.6875zM137.0625,112.875c-1.4835,0 -2.6875,1.20131 -2.6875,2.6875c0,1.48619 1.204,2.6875 2.6875,2.6875h5.375c1.4835,0 2.6875,-1.20131 2.6875,-2.6875c0,-1.48619 -1.204,-2.6875 -2.6875,-2.6875zM137.0625,126.3125c-1.4835,0 -2.6875,1.20131 -2.6875,2.6875c0,1.48619 1.204,2.6875 2.6875,2.6875h5.375c1.4835,0 2.6875,-1.20131 2.6875,-2.6875c0,-1.48619 -1.204,-2.6875 -2.6875,-2.6875z"></path></g></g></svg>