<svg xmlns="http://www.w3.org/2000/svg" x="0px" y="0px"
width="35px" height="35px"
viewBox="0 0 172 172"
style=" fill:#000000;"><g fill="none" fill-rule="nonzero" stroke="none" stroke-width="1" stroke-linecap="butt" stroke-linejoin="miter" stroke-miterlimit="10" stroke-dasharray="" stroke-dashoffset="0" font-family="none" font-weight="none" font-size="none" text-anchor="none" style="mix-blend-mode: normal"><path d="M0,172v-172h172v172z" fill="none"></path><g fill="#ffffff"><path d="M75.93195,18.92c-4.87964,0 -8.85195,4.12889 -8.85195,9.20805v2.83195h-9.85305c-14.59764,0 -21.10695,6.24132 -21.10695,20.23352v0.40648v8.6c0,0.4558 0.18055,0.89445 0.50391,1.21609l8.09609,8.09609v4.48141c-3.92005,0.79953 -6.88,4.27261 -6.88,8.42531v10.32c0,4.1527 2.95995,7.62243 6.88,8.42195v30.08992c0,12.02796 8.82296,20.10922 21.95687,20.10922h38.30359c13.3386,0 22.29953,-8.08126 22.29953,-20.10922v-30.08992c3.92005,-0.79983 6.88,-4.27075 6.88,-8.42195v-10.32c0,-4.15271 -2.95995,-7.62579 -6.88,-8.42531v-4.61578l8.08602,-7.95164c0.32852,-0.32336 0.51398,-0.76521 0.51398,-1.22617v-8.6v-0.40648c0,-13.9922 -6.51095,-20.23352 -21.11031,-20.23352h-9.84969v-2.83195c0,-5.07916 -3.97231,-9.20805 -8.85195,-9.20805zM75.93195,22.36h20.1361c2.9842,0 5.41195,2.58605 5.41195,5.76805v2.83195h-30.96v-2.83195c0,-3.182 2.42775,-5.76805 5.41195,-5.76805zM57.22695,34.4h57.5461c12.07956,0 17.27528,4.5064 17.6468,15.48h-92.83633c0.37152,-10.9736 5.5656,-15.48 17.64344,-15.48zM41.28,44.72c-0.47472,0 -0.86,0.38528 -0.86,0.86c0,0.47472 0.38528,0.86 0.86,0.86h79.12c0.47472,0 0.86,-0.38528 0.86,-0.86c0,-0.47472 -0.38528,-0.86 -0.86,-0.86zM121.26,45.58c0,0.47472 0.38528,0.86 0.86,0.86h5.16c0.47472,0 0.86,-0.38528 0.86,-0.86c0,-0.47472 -0.38528,-0.86 -0.86,-0.86h-5.16c-0.47472,0 -0.86,0.38528 -0.86,0.86zM39.56,53.32h92.88v3.44h-92.88zM39.56,58.48h92.88v0.99773l-8.08602,7.95164c-0.32852,0.32336 -0.51398,0.76857 -0.51398,1.22953v6.88v24.08v31.63187c0,4.11174 -1.15067,7.31703 -2.98648,9.78922h-69.76078c-1.80259,-2.4722 -2.93273,-5.6774 -2.93273,-9.78922v-31.63187v-24.08v-6.73891c0,-0.4558 -0.18055,-0.89445 -0.50391,-1.21609l-8.09609,-8.09609zM60.2,65.21891c-2.84488,0 -5.16,2.31512 -5.16,5.16v32.82109c0,0.47472 0.38528,0.86 0.86,0.86c0.47472,0 0.86,-0.38528 0.86,-0.86v-32.82109c0,-1.89716 1.54284,-3.44 3.44,-3.44c1.89716,0 3.44,1.54284 3.44,3.44v58.48c0,1.89716 -1.54284,3.44 -3.44,3.44c-1.89716,0 -3.44,-1.54284 -3.44,-3.44v-6.73891c0,-0.47472 -0.38528,-0.86 -0.86,-0.86c-0.47472,0 -0.86,0.38528 -0.86,0.86v6.73891c0,2.84488 2.31512,5.16 5.16,5.16c2.84488,0 5.16,-2.31512 5.16,-5.16v-58.48c0,-2.84488 -2.31512,-5.16 -5.16,-5.16zM55.9,104.06c-0.47472,0 -0.86,0.38528 -0.86,0.86v5.16c0,0.47472 0.38528,0.86 0.86,0.86c0.47472,0 0.86,-0.38528 0.86,-0.86v-5.16c0,-0.47472 -0.38528,-0.86 -0.86,-0.86zM77.4,65.36c-2.84488,0 -5.16,2.31512 -5.16,5.16v58.48c0,2.84488 2.31512,5.16 5.16,5.16c2.84488,0 5.16,-2.31512 5.16,-5.16v-58.48c0,-2.84488 -2.31512,-5.16 -5.16,-5.16zM94.6,65.36c-2.84488,0 -5.16,2.31512 -5.16,5.16v58.48c0,2.84488 2.31512,5.16 5.16,5.16c2.84488,0 5.16,-2.31512 5.16,-5.16v-58.48c0,-2.84488 -2.31512,-5.16 -5.16,-5.16zM111.8,65.36c-2.84488,0 -5.16,2.31512 -5.16,5.16v58.48c0,2.84488 2.31512,5.16 5.16,5.16c2.84488,0 5.16,-2.31512 5.16,-5.16v-58.48c0,-2.84488 -2.31512,-5.16 -5.16,-5.16zM77.4,67.08c1.89716,0 3.44,1.54284 3.44,3.44v58.48c0,1.89716 -1.54284,3.44 -3.44,3.44c-1.89716,0 -3.44,-1.54284 -3.44,-3.44v-58.48c0,-1.89716 1.54284,-3.44 3.44,-3.44zM94.6,67.08c1.89716,0 3.44,1.54284 3.44,3.44v58.48c0,1.89716 -1.54284,3.44 -3.44,3.44c-1.89716,0 -3.44,-1.54284 -3.44,-3.44v-58.48c0,-1.89716 1.54284,-3.44 3.44,-3.44zM111.8,67.08c1.89716,0 3.44,1.54284 3.44,3.44v58.48c0,1.89716 -1.54284,3.44 -3.44,3.44c-1.89716,0 -3.44,-1.54284 -3.44,-3.44v-58.48c0,-1.89716 1.54284,-3.44 3.44,-3.44zM44.72,77.55117v20.05211c-2.00208,-0.71036 -3.44,-2.62149 -3.44,-4.86437v-10.32c0,-2.24288 1.43792,-4.15737 3.44,-4.86773zM127.28,77.55117c2.00208,0.70864 3.44,2.62322 3.44,4.86438v10.32c0,2.24288 -1.43792,4.15402 -3.44,4.86437zM52.5675,142.76h66.78437c-3.76176,3.66392 -9.30697,5.16 -14.37141,5.16h-38.30359c-4.97223,0 -10.41582,-1.49622 -14.10937,-5.16z"></path></g></g></svg>