<?xml version="1.0" standalone="no"?>
<!DOCTYPE svg PUBLIC "-//W3C//DTD SVG 20010904//EN"
 "http://www.w3.org/TR/2001/REC-SVG-20010904/DTD/svg10.dtd">
<svg version="1.0" xmlns="http://www.w3.org/2000/svg"
 width="100.000000pt" height="100.000000pt" viewBox="0 0 100.000000 100.000000"
 preserveAspectRatio="xMidYMid meet">
<metadata>
Created by potrace 1.15, written by Peter Selinger 2001-2017
</metadata>
    <g transform="translate(0.000000,100.000000) scale(0.100000,-0.100000)"
        fill="#F97646" stroke="none">
        <path d="M154 844 c-54 -12 -54 -14 -52 -365 l3 -324 390 0 390 0 3 243 2 242
        -25 0 c-22 0 -25 4 -25 39 0 22 -6 43 -12 48 -7 4 -78 10 -158 13 l-145 5 -3
        31 c-6 62 -26 69 -196 71 -83 0 -161 -1 -172 -3z m314 -41 c12 -10 25 -34 30
        -53 l8 -35 144 -3 c85 -1 149 -7 157 -14 7 -6 13 -21 13 -34 l0 -24 -335 0
        -335 0 -1 -192 c0 -106 -4 -211 -8 -233 -7 -34 -17 290 -15 519 0 78 16 86
        184 86 117 0 141 -3 158 -17z m402 -396 c0 -152 -3 -216 -12 -225 -9 -9 -100
        -12 -349 -12 l-338 0 -1 225 0 225 350 0 350 0 0 -213z"/>
        <path d="M250 525 l0 -55 125 0 125 0 0 55 0 55 -125 0 -125 0 0 -55z m240 0
        l0 -45 -115 0 -115 0 0 45 0 45 115 0 115 0 0 -45z"/>
    </g>
</svg>
