<?xml version="1.0" standalone="no"?>
<!DOCTYPE svg PUBLIC "-//W3C//DTD SVG 20010904//EN"
 "http://www.w3.org/TR/2001/REC-SVG-20010904/DTD/svg10.dtd">
<svg version="1.0" xmlns="http://www.w3.org/2000/svg"
 width="100.000000pt" height="100.000000pt" viewBox="0 0 100.000000 100.000000"
 preserveAspectRatio="xMidYMid meet">
<metadata>
Created by potrace 1.15, written by Peter Selinger 2001-2017
</metadata>
<g transform="translate(0.000000,100.000000) scale(0.100000,-0.100000)"
fill="#F97646" stroke="none">
    <path d="M754 951 c-11 -5 -33 -23 -47 -41 -22 -26 -27 -41 -27 -89 0 -33 6
    -65 14 -77 14 -19 9 -28 -67 -122 l-82 -101 -112 -1 -111 0 -7 30 c-3 16 -23
    43 -42 61 -34 29 -40 31 -101 27 -59 -4 -67 -7 -98 -41 -31 -33 -34 -42 -34
    -97 0 -55 3 -64 34 -97 31 -34 39 -37 98 -41 61 -4 67 -2 101 27 19 18 39 45
    42 61 l7 30 111 0 112 -1 78 -105 c65 -87 76 -107 67 -123 -5 -11 -10 -45 -10
    -75 0 -50 4 -61 33 -93 29 -31 41 -37 89 -41 104 -8 162 48 155 151 -3 49 -8
    63 -35 90 -31 31 -36 32 -110 32 l-77 -1 -67 88 c-38 48 -68 92 -68 97 0 5 33
    49 74 98 l74 90 54 -5 c104 -8 162 48 155 151 -3 49 -8 63 -35 89 -26 27 -40
    32 -89 35 -32 1 -67 -1 -79 -6z"/>
    </g>
</svg>
