<svg xmlns="http://www.w3.org/2000/svg" x="0px" y="0px"
width="64" height="64"
viewBox="0 0 172 172"
style=" fill:#000000;"><g fill="none" fill-rule="nonzero" stroke="none" stroke-width="1" stroke-linecap="butt" stroke-linejoin="miter" stroke-miterlimit="10" stroke-dasharray="" stroke-dashoffset="0" font-family="none" font-weight="none" font-size="none" text-anchor="none" style="mix-blend-mode: normal"><path d="M0,172v-172h172v172z" fill="none"></path><g fill="#000000"><path d="M86,8.0625c-43.043,0 -77.9375,34.8945 -77.9375,77.9375c0,43.043 34.8945,77.9375 77.9375,77.9375c43.043,0 77.9375,-34.8945 77.9375,-77.9375c0,-43.043 -34.8945,-77.9375 -77.9375,-77.9375zM86,13.4375c40.076,0 72.5625,32.4865 72.5625,72.5625c0,40.076 -32.4865,72.5625 -72.5625,72.5625c-40.076,0 -72.5625,-32.4865 -72.5625,-72.5625c0,-40.076 32.4865,-72.5625 72.5625,-72.5625zM86.43042,24.10352c-30.01373,-0.28748 -56.56016,21.36546 -61.5238,51.90234c-3.19813,19.66444 3.27783,39.66288 17.39526,53.71851c1.12606,0.96481 2.82498,0.83212 3.7898,-0.29395c0.86269,-1.00512 0.86269,-2.49072 0,-3.49585c-22.04825,-22.03213 -22.06093,-57.76315 -0.03149,-79.8114l0.03149,-0.03149c12.83281,-12.77906 30.99884,-18.65356 48.88415,-15.80481c1.4835,0.2365 2.88142,-0.77358 3.11792,-2.25708c0.2365,-1.4835 -0.77358,-2.88142 -2.25708,-3.11792c-3.15899,-0.51373 -6.30138,-0.77861 -9.40625,-0.80835zM106.59192,27.85657c-1.04737,-0.01612 -2.0543,0.58306 -2.50378,1.60095c-0.59931,1.35719 0.01805,2.94378 1.37524,3.54309c0.09675,0.04031 0.19194,0.08067 0.28869,0.11023c1.92425,0.72025 3.80714,1.5451 5.6427,2.47229c1.32762,0.66919 2.94739,0.13085 3.61658,-1.19678c0.66919,-1.32762 0.13085,-2.94739 -1.19678,-3.61658c-2.01025,-1.00781 -4.0711,-1.90544 -6.1781,-2.6875c-0.3393,-0.14983 -0.69543,-0.22033 -1.04456,-0.22571zM123.09485,36.89539c-1.02847,-0.19728 -2.12119,0.21911 -2.73999,1.14429c-0.73906,1.10456 -0.56102,2.58517 0.41992,3.4801c1.80063,1.419 3.51567,2.94865 5.13354,4.5719c22.04019,22.04019 22.04275,57.77121 0.00525,79.8114l-0.00525,0.00525c-1.12606,0.96481 -1.25876,2.66373 -0.29395,3.7898c0.96481,1.12606 2.66373,1.25876 3.7898,0.29395c0.10481,-0.09137 0.20526,-0.18913 0.29395,-0.29395c24.12569,-24.13644 24.12569,-63.2598 0,-87.39624c-1.77106,-1.77644 -3.64652,-3.44638 -5.61646,-4.99707c-0.30839,-0.20627 -0.64399,-0.34366 -0.98682,-0.40942zM86,56.4375c-1.4835,0 -2.6875,1.204 -2.6875,2.6875v24.1875h-24.1875c-1.4835,0 -2.6875,1.204 -2.6875,2.6875c0,1.4835 1.204,2.6875 2.6875,2.6875h24.1875v24.1875c0,1.4835 1.204,2.6875 2.6875,2.6875c1.4835,0 2.6875,-1.204 2.6875,-2.6875v-24.1875h24.1875c1.4835,0 2.6875,-1.204 2.6875,-2.6875c0,-1.4835 -1.204,-2.6875 -2.6875,-2.6875h-24.1875v-24.1875c0,-1.4835 -1.204,-2.6875 -2.6875,-2.6875zM111.94067,129.95532c-0.34811,0.02835 -0.69959,0.12719 -1.02881,0.29919c-1.31688,0.688 -1.82179,2.3102 -1.13379,3.62707c0.03494,0.06719 0.06992,0.13496 0.11023,0.19946l2.6875,4.64539c0.688,1.31419 2.3102,1.82704 3.62707,1.13904c1.31688,-0.688 1.82704,-2.3102 1.13904,-3.62708c-0.03494,-0.06719 -0.07516,-0.13496 -0.11548,-0.19946l-2.6875,-4.64539c-0.516,-0.98564 -1.55392,-1.52327 -2.59827,-1.43823zM60.12756,130.05505c-1.03943,-0.13064 -2.10293,0.35929 -2.66126,1.32276l-0.00525,0.01575l-2.6875,4.64539c-0.7955,1.25238 -0.42828,2.91556 0.8241,3.71106c1.25238,0.7955 2.91031,0.42828 3.70581,-0.8241c0.04031,-0.0645 0.08054,-0.13227 0.11548,-0.19946l2.6875,-4.64539c0.74981,-1.27925 0.31868,-2.92975 -0.96057,-3.67957l-0.00525,-0.00525c-0.32116,-0.18611 -0.66658,-0.29764 -1.01306,-0.34119zM72.06384,135.30933c-1.03414,0.14865 -1.92887,0.89607 -2.21509,1.96838l-1.39624,5.15979c-0.43537,1.419 0.36042,2.91875 1.77942,3.35413c1.419,0.43537 2.924,-0.36042 3.35938,-1.77942c0.01882,-0.05912 0.03381,-0.11934 0.04724,-0.17847l1.39624,-5.18603c0.37625,-1.43244 -0.47564,-2.89901 -1.90539,-3.28064c-0.35811,-0.09406 -0.72084,-0.10729 -1.06555,-0.05774zM99.83118,135.39331c-0.34719,-0.03578 -0.70555,-0.00386 -1.0603,0.10498c-1.35181,0.41388 -2.15172,1.79966 -1.83191,3.17566l1.39624,5.18604c0.39238,1.4405 1.87688,2.28727 3.31738,1.8949c1.4405,-0.39238 2.28727,-1.87688 1.8949,-3.31738l-1.42249,-5.15979c-0.32653,-1.06425 -1.25225,-1.77707 -2.29382,-1.8844zM86,137.0625c-1.4835,0 -2.6875,1.204 -2.6875,2.6875v5.375c0,1.4835 1.204,2.6875 2.6875,2.6875c1.4835,0 2.6875,-1.204 2.6875,-2.6875v-5.375c0,-1.4835 -1.204,-2.6875 -2.6875,-2.6875z"></path></g></g></svg>