<svg xmlns="http://www.w3.org/2000/svg" x="0px" y="0px"
width="64" height="64"
viewBox="0 0 172 172"
style=" fill:#F97646;"><g fill="none" fill-rule="nonzero" stroke="none" stroke-width="1" stroke-linecap="butt" stroke-linejoin="miter" stroke-miterlimit="10" stroke-dasharray="" stroke-dashoffset="0" font-family="none" font-weight="none" font-size="none" text-anchor="none" style="mix-blend-mode: normal"><path d="M0,172v-172h172v172z" fill="none"></path><g fill="#F97646"><path d="M8.0625,43c-4.44067,0 -8.0625,3.62183 -8.0625,8.0625v64.5c0,4.44067 3.62183,8.0625 8.0625,8.0625h45.82397c1.38574,18.00415 16.45044,32.25 34.80103,32.25c18.35059,0 33.41528,-14.24585 34.80103,-32.25h40.44897c4.44067,0 8.0625,-3.62183 8.0625,-8.0625v-64.5c0,-4.44067 -3.62183,-8.0625 -8.0625,-8.0625zM8.0625,48.375h155.875c1.48022,0 2.6875,1.20728 2.6875,2.6875v64.5c0,1.48022 -1.20728,2.6875 -2.6875,2.6875h-40.44897c-1.31226,-17.12232 -14.99121,-30.80127 -32.11353,-32.11353v-29.69897c0,-1.48022 -1.19678,-2.6875 -2.6875,-2.6875c-1.49072,0 -2.6875,1.20728 -2.6875,2.6875v29.69897c-17.12232,1.31226 -30.80127,14.99121 -32.11353,32.11353h-45.82397c-1.48022,0 -2.6875,-1.20728 -2.6875,-2.6875v-64.5c0,-1.48022 1.20728,-2.6875 2.6875,-2.6875zM13.4375,53.75c-1.49072,0 -2.6875,1.20728 -2.6875,2.6875c0,1.48022 1.19678,2.6875 2.6875,2.6875h5.375c1.49072,0 2.6875,-1.20728 2.6875,-2.6875c0,-1.48022 -1.19678,-2.6875 -2.6875,-2.6875zM45.6875,53.75c-1.49072,0 -2.6875,1.20728 -2.6875,2.6875v53.75c0,1.48022 1.19678,2.6875 2.6875,2.6875c1.49072,0 2.6875,-1.20728 2.6875,-2.6875v-53.75c0,-1.48022 -1.19678,-2.6875 -2.6875,-2.6875zM131.6875,53.75c-1.49072,0 -2.6875,1.20728 -2.6875,2.6875v53.75c0,1.48022 1.19678,2.6875 2.6875,2.6875c1.49072,0 2.6875,-1.20728 2.6875,-2.6875v-53.75c0,-1.48022 -1.19678,-2.6875 -2.6875,-2.6875zM13.4375,67.1875c-1.49072,0 -2.6875,1.20728 -2.6875,2.6875c0,1.48022 1.19678,2.6875 2.6875,2.6875h5.375c1.49072,0 2.6875,-1.20728 2.6875,-2.6875c0,-1.48022 -1.19678,-2.6875 -2.6875,-2.6875zM13.4375,80.625c-1.49072,0 -2.6875,1.20728 -2.6875,2.6875c0,1.48022 1.19678,2.6875 2.6875,2.6875h5.375c1.49072,0 2.6875,-1.20728 2.6875,-2.6875c0,-1.48022 -1.19678,-2.6875 -2.6875,-2.6875zM88.6875,91.375c16.30347,0 29.5625,13.25903 29.5625,29.5625c0,16.30347 -13.25903,29.5625 -29.5625,29.5625c-16.30347,0 -29.5625,-13.25903 -29.5625,-29.5625c0,-16.30347 13.25903,-29.5625 29.5625,-29.5625zM13.4375,94.0625c-1.49072,0 -2.6875,1.20728 -2.6875,2.6875c0,1.48022 1.19678,2.6875 2.6875,2.6875h5.375c1.49072,0 2.6875,-1.20728 2.6875,-2.6875c0,-1.48022 -1.19678,-2.6875 -2.6875,-2.6875zM88.6875,102.125c-1.49072,0 -2.6875,1.20728 -2.6875,2.6875v13.4375h-13.4375c-1.49072,0 -2.6875,1.20728 -2.6875,2.6875c0,1.48022 1.19678,2.6875 2.6875,2.6875h13.4375v13.4375c0,1.48022 1.19678,2.6875 2.6875,2.6875c1.49072,0 2.6875,-1.20728 2.6875,-2.6875v-13.4375h13.4375c1.49072,0 2.6875,-1.20728 2.6875,-2.6875c0,-1.48022 -1.19678,-2.6875 -2.6875,-2.6875h-13.4375v-13.4375c0,-1.48022 -1.19678,-2.6875 -2.6875,-2.6875zM13.4375,107.5c-1.49072,0 -2.6875,1.20728 -2.6875,2.6875c0,1.48022 1.19678,2.6875 2.6875,2.6875h5.375c1.49072,0 2.6875,-1.20728 2.6875,-2.6875c0,-1.48022 -1.19678,-2.6875 -2.6875,-2.6875z"></path></g></g></svg>