<svg xmlns="http://www.w3.org/2000/svg" x="0px" y="0px"
width="64" height="64"
viewBox="0 0 172 172"
style=" fill:#F97646;"><g fill="none" fill-rule="nonzero" stroke="none" stroke-width="1" stroke-linecap="butt" stroke-linejoin="miter" stroke-miterlimit="10" stroke-dasharray="" stroke-dashoffset="0" font-family="none" font-weight="none" font-size="none" text-anchor="none" style="mix-blend-mode: normal"><path d="M0,172v-172h172v172z" fill="none"></path><g id="original-icon" fill="#F97646"><path d="M56.4375,0c-4.44067,0 -8.0625,3.62183 -8.0625,8.0625v155.875c0,4.44067 3.62183,8.0625 8.0625,8.0625h64.5c4.44067,0 8.0625,-3.62183 8.0625,-8.0625v-40.44897c18.00415,-1.37524 32.25,-16.45044 32.25,-34.80103c0,-18.35059 -14.24585,-33.42578 -32.25,-34.80103v-45.82397c0,-4.44067 -3.62183,-8.0625 -8.0625,-8.0625zM56.4375,5.375h64.5c1.48022,0 2.6875,1.20728 2.6875,2.6875v45.82397c-17.12232,1.31226 -30.80127,14.99121 -32.11353,32.11353h-29.69897c-1.49072,0 -2.6875,1.19678 -2.6875,2.6875c0,1.49072 1.19678,2.6875 2.6875,2.6875h29.69897c1.31226,17.12232 14.99121,30.80127 32.11353,32.11353v40.44897c0,1.48022 -1.20728,2.6875 -2.6875,2.6875h-64.5c-1.48022,0 -2.6875,-1.20728 -2.6875,-2.6875v-155.875c0,-1.48022 1.20728,-2.6875 2.6875,-2.6875zM61.8125,10.75c-1.49072,0 -2.6875,1.19678 -2.6875,2.6875v5.375c0,1.49072 1.19678,2.6875 2.6875,2.6875c1.49072,0 2.6875,-1.19678 2.6875,-2.6875v-5.375c0,-1.49072 -1.19678,-2.6875 -2.6875,-2.6875zM75.25,10.75c-1.49072,0 -2.6875,1.19678 -2.6875,2.6875v5.375c0,1.49072 1.19678,2.6875 2.6875,2.6875c1.49072,0 2.6875,-1.19678 2.6875,-2.6875v-5.375c0,-1.49072 -1.19678,-2.6875 -2.6875,-2.6875zM88.6875,10.75c-1.49072,0 -2.6875,1.19678 -2.6875,2.6875v5.375c0,1.49072 1.19678,2.6875 2.6875,2.6875c1.49072,0 2.6875,-1.19678 2.6875,-2.6875v-5.375c0,-1.49072 -1.19678,-2.6875 -2.6875,-2.6875zM102.125,10.75c-1.49072,0 -2.6875,1.19678 -2.6875,2.6875v5.375c0,1.49072 1.19678,2.6875 2.6875,2.6875c1.49072,0 2.6875,-1.19678 2.6875,-2.6875v-5.375c0,-1.49072 -1.19678,-2.6875 -2.6875,-2.6875zM115.5625,10.75c-1.49072,0 -2.6875,1.19678 -2.6875,2.6875v5.375c0,1.49072 1.19678,2.6875 2.6875,2.6875c1.49072,0 2.6875,-1.19678 2.6875,-2.6875v-5.375c0,-1.49072 -1.19678,-2.6875 -2.6875,-2.6875zM61.8125,43c-1.49072,0 -2.6875,1.19678 -2.6875,2.6875c0,1.49072 1.19678,2.6875 2.6875,2.6875h53.75c1.49072,0 2.6875,-1.19678 2.6875,-2.6875c0,-1.49072 -1.19678,-2.6875 -2.6875,-2.6875zM126.3125,59.125c16.30347,0 29.5625,13.25903 29.5625,29.5625c0,16.30347 -13.25903,29.5625 -29.5625,29.5625c-16.30347,0 -29.5625,-13.25903 -29.5625,-29.5625c0,-16.30347 13.25903,-29.5625 29.5625,-29.5625zM126.3125,69.875c-1.49072,0 -2.6875,1.19678 -2.6875,2.6875v13.4375h-13.4375c-1.49072,0 -2.6875,1.19678 -2.6875,2.6875c0,1.49072 1.19678,2.6875 2.6875,2.6875h13.4375v13.4375c0,1.49072 1.19678,2.6875 2.6875,2.6875c1.49072,0 2.6875,-1.19678 2.6875,-2.6875v-13.4375h13.4375c1.49072,0 2.6875,-1.19678 2.6875,-2.6875c0,-1.49072 -1.19678,-2.6875 -2.6875,-2.6875h-13.4375v-13.4375c0,-1.49072 -1.19678,-2.6875 -2.6875,-2.6875zM61.8125,129c-1.49072,0 -2.6875,1.19678 -2.6875,2.6875c0,1.49072 1.19678,2.6875 2.6875,2.6875h53.75c1.49072,0 2.6875,-1.19678 2.6875,-2.6875c0,-1.49072 -1.19678,-2.6875 -2.6875,-2.6875z"></path></g></g></svg>