<svg xmlns="http://www.w3.org/2000/svg" x="0px" y="0px"
width="30px" height="30px"
viewBox="0 0 172 172"
style=" fill:#F97646;"><g fill="none" fill-rule="nonzero" stroke="none" stroke-width="1" stroke-linecap="butt" stroke-linejoin="miter" stroke-miterlimit="10" stroke-dasharray="" stroke-dashoffset="0" font-family="none" font-weight="none" font-size="none" text-anchor="none" style="mix-blend-mode: normal"><path d="M0,172v-172h172v172z" fill="none"></path><g fill="#F97646"><path d="M18.8125,21.5c-4.44067,0 -8.0625,3.62183 -8.0625,8.0625v112.875c0,4.44067 3.62183,8.0625 8.0625,8.0625h134.375c4.44067,0 8.0625,-3.62183 8.0625,-8.0625v-112.875c0,-4.44067 -3.62183,-8.0625 -8.0625,-8.0625zM18.8125,26.875h134.375c1.48022,0 2.6875,1.20728 2.6875,2.6875v112.875c0,1.48022 -1.20728,2.6875 -2.6875,2.6875h-134.375c-1.48022,0 -2.6875,-1.20728 -2.6875,-2.6875v-88.6875h110.1875c1.48022,0 2.6875,-1.20728 2.6875,-2.6875c0,-1.48022 -1.20728,-2.6875 -2.6875,-2.6875h-110.1875v-18.8125c0,-1.48022 1.20728,-2.6875 2.6875,-2.6875zM26.875,32.25c-1.48022,0 -2.6875,1.20728 -2.6875,2.6875v5.375c0,1.48022 1.20728,2.6875 2.6875,2.6875c1.48022,0 2.6875,-1.20728 2.6875,-2.6875v-5.375c0,-1.48022 -1.20728,-2.6875 -2.6875,-2.6875zM40.3125,32.25c-1.48022,0 -2.6875,1.20728 -2.6875,2.6875v5.375c0,1.48022 1.20728,2.6875 2.6875,2.6875c1.48022,0 2.6875,-1.20728 2.6875,-2.6875v-5.375c0,-1.48022 -1.20728,-2.6875 -2.6875,-2.6875zM53.75,32.25c-1.48022,0 -2.6875,1.20728 -2.6875,2.6875v5.375c0,1.48022 1.20728,2.6875 2.6875,2.6875c1.48022,0 2.6875,-1.20728 2.6875,-2.6875v-5.375c0,-1.48022 -1.20728,-2.6875 -2.6875,-2.6875zM67.1875,32.25c-1.48022,0 -2.6875,1.20728 -2.6875,2.6875v5.375c0,1.48022 1.20728,2.6875 2.6875,2.6875c1.48022,0 2.6875,-1.20728 2.6875,-2.6875v-5.375c0,-1.48022 -1.20728,-2.6875 -2.6875,-2.6875zM80.625,32.25c-1.48022,0 -2.6875,1.20728 -2.6875,2.6875v5.375c0,1.48022 1.20728,2.6875 2.6875,2.6875c1.48022,0 2.6875,-1.20728 2.6875,-2.6875v-5.375c0,-1.48022 -1.20728,-2.6875 -2.6875,-2.6875zM94.0625,32.25c-1.48022,0 -2.6875,1.20728 -2.6875,2.6875v5.375c0,1.48022 1.20728,2.6875 2.6875,2.6875c1.48022,0 2.6875,-1.20728 2.6875,-2.6875v-5.375c0,-1.48022 -1.20728,-2.6875 -2.6875,-2.6875zM107.5,32.25c-1.48022,0 -2.6875,1.20728 -2.6875,2.6875v5.375c0,1.48022 1.20728,2.6875 2.6875,2.6875c1.48022,0 2.6875,-1.20728 2.6875,-2.6875v-5.375c0,-1.48022 -1.20728,-2.6875 -2.6875,-2.6875zM120.9375,32.25c-1.48022,0 -2.6875,1.20728 -2.6875,2.6875v5.375c0,1.48022 1.20728,2.6875 2.6875,2.6875c1.48022,0 2.6875,-1.20728 2.6875,-2.6875v-5.375c0,-1.48022 -1.20728,-2.6875 -2.6875,-2.6875zM134.375,32.25c-1.48022,0 -2.6875,1.20728 -2.6875,2.6875v5.375c0,1.48022 1.20728,2.6875 2.6875,2.6875c1.48022,0 2.6875,-1.20728 2.6875,-2.6875v-5.375c0,-1.48022 -1.20728,-2.6875 -2.6875,-2.6875zM147.8125,32.25c-1.48022,0 -2.6875,1.20728 -2.6875,2.6875v5.375c0,1.48022 1.20728,2.6875 2.6875,2.6875c1.48022,0 2.6875,-1.20728 2.6875,-2.6875v-5.375c0,-1.48022 -1.20728,-2.6875 -2.6875,-2.6875zM137.0625,48.375c-1.48022,0 -2.6875,1.20728 -2.6875,2.6875c0,1.48022 1.20728,2.6875 2.6875,2.6875h10.75c1.48022,0 2.6875,-1.20728 2.6875,-2.6875c0,-1.48022 -1.20728,-2.6875 -2.6875,-2.6875zM34.9375,64.5c-1.48022,0 -2.6875,1.20728 -2.6875,2.6875v10.75c0,1.48022 1.20728,2.6875 2.6875,2.6875h102.125c1.48022,0 2.6875,-1.20728 2.6875,-2.6875v-10.75c0,-1.48022 -1.20728,-2.6875 -2.6875,-2.6875zM37.625,69.875h53.75v5.375h-53.75zM96.75,69.875h37.625v5.375h-37.625zM34.9375,91.375c-1.48022,0 -2.6875,1.20728 -2.6875,2.6875v32.25c0,1.48022 1.20728,2.6875 2.6875,2.6875h43c1.48022,0 2.6875,-1.20728 2.6875,-2.6875v-32.25c0,-1.48022 -1.20728,-2.6875 -2.6875,-2.6875zM94.0625,91.375c-1.48022,0 -2.6875,1.20728 -2.6875,2.6875c0,1.48022 1.20728,2.6875 2.6875,2.6875h43c1.48022,0 2.6875,-1.20728 2.6875,-2.6875c0,-1.48022 -1.20728,-2.6875 -2.6875,-2.6875zM37.625,96.75h37.625v26.875h-37.625zM94.0625,102.125c-1.48022,0 -2.6875,1.20728 -2.6875,2.6875c0,1.48022 1.20728,2.6875 2.6875,2.6875h21.5c1.48022,0 2.6875,-1.20728 2.6875,-2.6875c0,-1.48022 -1.20728,-2.6875 -2.6875,-2.6875zM126.3125,102.125c-1.48022,0 -2.6875,1.20728 -2.6875,2.6875c0,1.48022 1.20728,2.6875 2.6875,2.6875h5.375c1.48022,0 2.6875,-1.20728 2.6875,-2.6875c0,-1.48022 -1.20728,-2.6875 -2.6875,-2.6875zM94.0625,112.875c-1.48022,0 -2.6875,1.20728 -2.6875,2.6875c0,1.48022 1.20728,2.6875 2.6875,2.6875h43c1.48022,0 2.6875,-1.20728 2.6875,-2.6875c0,-1.48022 -1.20728,-2.6875 -2.6875,-2.6875zM94.0625,123.625c-1.48022,0 -2.6875,1.20728 -2.6875,2.6875c0,1.48022 1.20728,2.6875 2.6875,2.6875h16.125c1.48022,0 2.6875,-1.20728 2.6875,-2.6875c0,-1.48022 -1.20728,-2.6875 -2.6875,-2.6875z"></path></g></g></svg>