<svg xmlns="http://www.w3.org/2000/svg" x="0px" y="0px"
width="30px" height="30px"
viewBox="0 0 172 172"
style=" fill:#000000;"><g fill="none" fill-rule="nonzero" stroke="none" stroke-width="1" stroke-linecap="butt" stroke-linejoin="miter" stroke-miterlimit="10" stroke-dasharray="" stroke-dashoffset="0" font-family="none" font-weight="none" font-size="none" text-anchor="none" style="mix-blend-mode: normal"><path d="M0,172v-172h172v172z" fill="none"></path><g fill="#ffffff"><path d="M137.6,0c-18.79906,0 -34.13125,15.13063 -34.4,33.8625c0,0.17469 0,0.36281 0,0.5375c0,12.685 6.86656,23.70375 17.0925,29.67c5.07938,2.96969 11.00531,4.73 17.3075,4.73c18.97375,0 34.4,-15.42625 34.4,-34.4c0,-18.97375 -15.42625,-34.4 -34.4,-34.4zM96.535,37.3025l-35.1525,17.63c8.18344,7.095 13.55844,17.3075 14.19,28.81l35.5825,-17.845c-8.30437,-6.97406 -13.80031,-17.13281 -14.62,-28.595zM34.4,51.6c-18.97375,0 -34.4,15.42625 -34.4,34.4c0,18.97375 15.42625,34.4 34.4,34.4c7.05469,0 13.55844,-2.15 19.0275,-5.805c9.23156,-6.16781 15.3725,-16.64906 15.3725,-28.595c0,-12.34906 -6.57094,-23.16625 -16.34,-29.24c-5.2675,-3.27875 -11.42187,-5.16 -18.06,-5.16zM75.5725,88.2575c-0.63156,11.48906 -5.9125,21.80906 -14.0825,28.9175l35.045,17.5225c0.81969,-11.46219 6.22156,-21.6075 14.5125,-28.595zM137.6,103.2c-7.095,0 -13.6525,2.21719 -19.135,5.9125c-9.17781,6.18125 -15.265,16.59531 -15.265,28.4875c0,0.05375 0,0.05375 0,0.1075c-0.14781,0.01344 -0.28219,0.09406 -0.43,0.1075l0.43,0.215c0.22844,18.77219 15.57406,33.97 34.4,33.97c18.97375,0 34.4,-15.42625 34.4,-34.4c0,-18.97375 -15.42625,-34.4 -34.4,-34.4z"></path></g></g></svg>