<?xml version="1.0" standalone="no"?>
<!DOCTYPE svg PUBLIC "-//W3C//DTD SVG 20010904//EN"
 "http://www.w3.org/TR/2001/REC-SVG-20010904/DTD/svg10.dtd">
<svg version="1.0" xmlns="http://www.w3.org/2000/svg"
    width="50.000000pt" height="50.000000pt" viewBox="0 0 100.000000 100.000000"
    fill = "#F97626" preserveAspectRatio="xMidYMid meet" class = "documentFolderSvgIcon">
        <g transform="translate(0.000000,100.000000) scale(0.100000,-0.100000)" stroke="none">
            <path d="M184 910 c-41 -16 -64 -59 -64 -116 0 -55 8 -68 34 -58 12 4 16 20
                    16 55 0 79 0 79 311 79 l266 0 5 -51 c4 -38 12 -58 32 -77 24 -24 34 -27 99
                    -27 l72 0 -2 44 c-2 52 -37 107 -85 136 -31 19 -54 20 -348 22 -173 1 -325 -2
                    -336 -7z"/>
            <path d="M56 658 c-14 -19 -16 -65 -16 -296 l0 -273 25 -24 24 -25 400 0 c272
                    0 408 4 424 11 14 6 30 22 36 36 14 30 15 559 2 567 -5 4 -16 3 -25 0 -14 -5
                    -16 -38 -16 -274 0 -280 -3 -300 -44 -284 -14 5 -16 32 -16 221 0 280 14 263
                    -208 263 l-159 0 -45 40 c-25 22 -58 44 -72 50 -15 5 -88 10 -161 10 -127 0
                    -135 -1 -149 -22z m343 -63 c63 -58 93 -65 256 -65 l145 0 0 -204 c0 -112 3
                    -212 6 -220 6 -15 -28 -16 -352 -14 l-359 3 -3 268 -2 267 135 0 135 0 39 -35z"/>
        </g>
</svg>  