<svg xmlns="http://www.w3.org/2000/svg" x="0px" y="0px"
width="80px" height="80px"
viewBox="0 0 172 172"
style=" fill:#000000;"><g fill="none" fill-rule="nonzero" stroke="none" stroke-width="1" stroke-linecap="butt" stroke-linejoin="miter" stroke-miterlimit="10" stroke-dasharray="" stroke-dashoffset="0" font-family="none" font-weight="none" font-size="none" text-anchor="none" style="mix-blend-mode: normal"><path d="M0,172v-172h172v172z" fill="none"></path><g fill="#f97645"><path d="M39.56,29.24c-6.62945,0 -12.04,5.41055 -12.04,12.04v17.2c-0.00877,0.62029 0.31713,1.19726 0.8529,1.50997c0.53578,0.31271 1.19842,0.31271 1.7342,0c0.53578,-0.31271 0.86167,-0.88967 0.8529,-1.50997v-17.2c0,-4.77071 3.82929,-8.6 8.6,-8.6h17.2c0.62029,0.00877 1.19726,-0.31713 1.50997,-0.8529c0.31271,-0.53578 0.31271,-1.19842 0,-1.7342c-0.31271,-0.53578 -0.88967,-0.86167 -1.50997,-0.8529zM111.8,29.24c-0.62029,-0.00877 -1.19726,0.31713 -1.50997,0.8529c-0.31271,0.53578 -0.31271,1.19842 0,1.7342c0.31271,0.53578 0.88967,0.86167 1.50997,0.8529h17.2c4.77071,0 8.6,3.82929 8.6,8.6v17.2c-0.00877,0.62029 0.31713,1.19726 0.8529,1.50997c0.53578,0.31271 1.19842,0.31271 1.7342,0c0.53578,-0.31271 0.86167,-0.88967 0.8529,-1.50997v-17.2c0,-6.62945 -5.41055,-12.04 -12.04,-12.04zM63.64,46.44c-4.72917,0 -8.6,3.87083 -8.6,8.6v46.44h-25.8c-0.62029,-0.00877 -1.19726,0.31713 -1.50997,0.8529c-0.31271,0.53578 -0.31271,1.19842 0,1.7342c0.31271,0.53578 0.88967,0.86167 1.50997,0.8529h110.08c0.62029,0.00877 1.19726,-0.31713 1.50997,-0.8529c0.31271,-0.53578 0.31271,-1.19842 0,-1.7342c-0.31271,-0.53578 -0.88967,-0.86167 -1.50997,-0.8529h-22.36v-33.54c-0.00004,-0.22807 -0.09067,-0.44679 -0.25195,-0.60805l-20.64,-20.64c-0.16126,-0.16128 -0.37998,-0.25191 -0.60805,-0.25195zM96.32,49.37609l17.70391,17.70391h-8.24391c-5.23539,0 -9.46,-4.22461 -9.46,-9.46zM63.64,49.88h30.96v7.74c0,6.16477 5.01523,11.18 11.18,11.18h7.74v32.68h-9.39953h-6.94047h-3.37953h-8.66047h-3.37953h-13.82047h-4.3v-42.14c0,-2.38535 1.91465,-4.3 4.3,-4.3c0.31015,0.00439 0.59863,-0.15856 0.75498,-0.42645c0.15635,-0.26789 0.15635,-0.59921 0,-0.8671c-0.15635,-0.26789 -0.44484,-0.43084 -0.75498,-0.42645c-3.31473,0 -6.02,2.70527 -6.02,6.02v42.14h-3.44v-46.44c0,-2.86979 2.29021,-5.16 5.16,-5.16zM88.58,72.24c-0.47495,0.00005 -0.85995,0.38505 -0.86,0.86v13.76c-0.00439,0.31015 0.15856,0.59863 0.42645,0.75498c0.26789,0.15635 0.59921,0.15635 0.8671,0c0.26789,-0.15635 0.43084,-0.44484 0.42645,-0.75498v-12.9h13.76v13.76h-7.74c-0.31015,-0.00439 -0.59863,0.15856 -0.75498,0.42645c-0.15635,0.26789 -0.15635,0.59921 0,0.8671c0.15635,0.26789 0.44484,0.43084 0.75498,0.42645h8.6c0.47495,-0.00005 0.85995,-0.38505 0.86,-0.86v-15.48c-0.00005,-0.47495 -0.38505,-0.85995 -0.86,-0.86zM67.94,73.96c-0.31015,-0.00439 -0.59863,0.15856 -0.75498,0.42645c-0.15635,0.26789 -0.15635,0.59921 0,0.8671c0.15635,0.26789 0.44484,0.43084 0.75498,0.42645h15.48c0.31015,0.00439 0.59863,-0.15856 0.75498,-0.42645c0.15635,-0.26789 0.15635,-0.59921 0,-0.8671c-0.15635,-0.26789 -0.44484,-0.43084 -0.75498,-0.42645zM109.20656,80.82656c-0.22809,0.00356 -0.44542,0.09758 -0.60418,0.26138c-0.15876,0.1638 -0.24595,0.38397 -0.24238,0.61205v1.72c-0.00439,0.31015 0.15856,0.59863 0.42645,0.75498c0.26789,0.15635 0.59921,0.15635 0.8671,0c0.26789,-0.15635 0.43084,-0.44484 0.42645,-0.75498v-1.72c0.00364,-0.23275 -0.08721,-0.45703 -0.25181,-0.62163c-0.1646,-0.1646 -0.38888,-0.25545 -0.62163,-0.25181zM67.94,80.84c-0.31015,-0.00439 -0.59863,0.15856 -0.75498,0.42645c-0.15635,0.26789 -0.15635,0.59921 0,0.8671c0.15635,0.26789 0.44484,0.43084 0.75498,0.42645h15.48c0.31015,0.00439 0.59863,-0.15856 0.75498,-0.42645c0.15635,-0.26789 0.15635,-0.59921 0,-0.8671c-0.15635,-0.26789 -0.44484,-0.43084 -0.75498,-0.42645zM109.20656,85.98656c-0.22809,0.00356 -0.44542,0.09758 -0.60418,0.26138c-0.15876,0.1638 -0.24595,0.38397 -0.24238,0.61205v5.16c-0.00439,0.31015 0.15856,0.59863 0.42645,0.75498c0.26789,0.15635 0.59921,0.15635 0.8671,0c0.26789,-0.15635 0.43084,-0.44484 0.42645,-0.75498v-5.16c0.00364,-0.23275 -0.08721,-0.45703 -0.25181,-0.62163c-0.1646,-0.1646 -0.38888,-0.25545 -0.62163,-0.25181zM67.94,87.72c-0.31015,-0.00439 -0.59863,0.15856 -0.75498,0.42645c-0.15635,0.26789 -0.15635,0.59921 0,0.8671c0.15635,0.26789 0.44484,0.43084 0.75498,0.42645h15.48c0.31015,0.00439 0.59863,-0.15856 0.75498,-0.42645c0.15635,-0.26789 0.15635,-0.59921 0,-0.8671c-0.15635,-0.26789 -0.44484,-0.43084 -0.75498,-0.42645zM67.94,94.6c-0.31015,-0.00439 -0.59863,0.15856 -0.75498,0.42645c-0.15635,0.26789 -0.15635,0.59921 0,0.8671c0.15635,0.26789 0.44484,0.43084 0.75498,0.42645h10.32c0.31015,0.00439 0.59863,-0.15856 0.75498,-0.42645c0.15635,-0.26789 0.15635,-0.59921 0,-0.8671c-0.15635,-0.26789 -0.44484,-0.43084 -0.75498,-0.42645zM81.7,94.6c-0.31015,-0.00439 -0.59863,0.15856 -0.75498,0.42645c-0.15635,0.26789 -0.15635,0.59921 0,0.8671c0.15635,0.26789 0.44484,0.43084 0.75498,0.42645h22.36c0.31015,0.00439 0.59863,-0.15856 0.75498,-0.42645c0.15635,-0.26789 0.15635,-0.59921 0,-0.8671c-0.15635,-0.26789 -0.44484,-0.43084 -0.75498,-0.42645zM56.73313,108.33648c-0.94861,0.01483 -1.70612,0.79488 -1.69313,1.74352v6.88c0,4.72917 3.87083,8.6 8.6,8.6h44.72c4.72917,0 8.6,-3.87083 8.6,-8.6v-6.88c0.00877,-0.62029 -0.31713,-1.19726 -0.8529,-1.50997c-0.53578,-0.31271 -1.19842,-0.31271 -1.7342,0c-0.53578,0.31271 -0.86167,0.88967 -0.8529,1.50997v6.88c0,2.86979 -2.29021,5.16 -5.16,5.16h-44.72c-2.86979,0 -5.16,-2.29021 -5.16,-5.16v-6.88c0.00637,-0.46492 -0.17574,-0.91261 -0.50484,-1.24107c-0.32909,-0.32846 -0.77713,-0.50971 -1.24204,-0.50245zM62.76656,108.34656c-0.22809,0.00356 -0.44542,0.09758 -0.60418,0.26138c-0.15876,0.1638 -0.24595,0.38397 -0.24238,0.61205v3.44c0,3.31473 2.70527,6.02 6.02,6.02h36.12c3.31473,0 6.02,-2.70527 6.02,-6.02v-3.44c0.00439,-0.31015 -0.15856,-0.59863 -0.42645,-0.75498c-0.26789,-0.15635 -0.59921,-0.15635 -0.8671,0c-0.26789,0.15635 -0.43084,0.44484 -0.42645,0.75498v3.44c0,2.38535 -1.91465,4.3 -4.3,4.3h-36.12c-2.38535,0 -4.3,-1.91465 -4.3,-4.3v-3.44c0.00364,-0.23275 -0.08721,-0.45703 -0.25181,-0.62163c-0.1646,-0.1646 -0.38888,-0.25545 -0.62163,-0.25181zM67.94,108.36c-0.31015,-0.00439 -0.59863,0.15856 -0.75498,0.42645c-0.15635,0.26789 -0.15635,0.59921 0,0.8671c0.15635,0.26789 0.44484,0.43084 0.75498,0.42645h18.92c0.31015,0.00439 0.59863,-0.15856 0.75498,-0.42645c0.15635,-0.26789 0.15635,-0.59921 0,-0.8671c-0.15635,-0.26789 -0.44484,-0.43084 -0.75498,-0.42645zM90.3,108.36c-0.31015,-0.00439 -0.59863,0.15856 -0.75498,0.42645c-0.15635,0.26789 -0.15635,0.59921 0,0.8671c0.15635,0.26789 0.44484,0.43084 0.75498,0.42645h13.76c0.31015,0.00439 0.59863,-0.15856 0.75498,-0.42645c0.15635,-0.26789 0.15635,-0.59921 0,-0.8671c-0.15635,-0.26789 -0.44484,-0.43084 -0.75498,-0.42645zM29.21313,111.77648c-0.94861,0.01483 -1.70612,0.79488 -1.69312,1.74352v17.2c0,6.62945 5.41055,12.04 12.04,12.04h17.2c0.62029,0.00877 1.19726,-0.31713 1.50997,-0.8529c0.31271,-0.53578 0.31271,-1.19842 0,-1.7342c-0.31271,-0.53578 -0.88967,-0.86167 -1.50997,-0.8529h-17.2c-4.77071,0 -8.6,-3.82929 -8.6,-8.6v-17.2c0.00637,-0.46492 -0.17574,-0.91261 -0.50484,-1.24107c-0.32909,-0.32846 -0.77713,-0.50971 -1.24204,-0.50245zM139.29313,111.77648c-0.94861,0.01483 -1.70612,0.79488 -1.69313,1.74352v17.2c0,4.77071 -3.82929,8.6 -8.6,8.6h-17.2c-0.62029,-0.00877 -1.19726,0.31713 -1.50997,0.8529c-0.31271,0.53578 -0.31271,1.19842 0,1.7342c0.31271,0.53578 0.88967,0.86167 1.50997,0.8529h17.2c6.62945,0 12.04,-5.41055 12.04,-12.04v-17.2c0.00637,-0.46492 -0.17574,-0.91261 -0.50484,-1.24107c-0.32909,-0.32846 -0.77713,-0.50971 -1.24204,-0.50245z"></path></g></g></svg>