<svg xmlns="http://www.w3.org/2000/svg" x="0px" y="0px"
width="50" height="50"
viewBox="0 0 172 172"
style=" fill:#000000;"><g fill="none" fill-rule="nonzero" stroke="none" stroke-width="1" stroke-linecap="butt" stroke-linejoin="miter" stroke-miterlimit="10" stroke-dasharray="" stroke-dashoffset="0" font-family="none" font-weight="none" font-size="none" text-anchor="none" style="mix-blend-mode: normal"><path d="M0,172v-172h172v172z" fill="none"></path><g fill="#f97645"><path d="M72.24,6.88c-5.65719,0 -10.32,4.66281 -10.32,10.32v6.88h-26.9825c-0.20156,-0.02687 -0.38969,-0.05375 -0.59125,-0.05375c-0.16125,0.01344 -0.33594,0.02688 -0.49719,0.05375h-6.32906c-1.23625,-0.01344 -2.39187,0.63156 -3.02344,1.70656c-0.61813,1.075 -0.61813,2.39187 0,3.46687c0.63156,1.075 1.78719,1.72 3.02344,1.70656h3.44v123.84c0,5.65719 4.66281,10.32 10.32,10.32h89.44c5.65719,0 10.32,-4.66281 10.32,-10.32v-123.84h3.44c1.23625,0.01344 2.39188,-0.63156 3.02344,-1.70656c0.61813,-1.075 0.61813,-2.39187 0,-3.46687c-0.63156,-1.075 -1.78719,-1.72 -3.02344,-1.70656h-6.30219c-0.37625,-0.06719 -0.7525,-0.06719 -1.11531,0h-26.9825v-6.88c0,-5.65719 -4.66281,-10.32 -10.32,-10.32zM72.24,13.76h27.52c1.90813,0 3.44,1.53188 3.44,3.44v6.88h-34.4v-6.88c0,-1.90812 1.53188,-3.44 3.44,-3.44zM37.84,30.96h26.94219c0.37625,0.06719 0.7525,0.06719 1.11531,0h40.16469c0.37625,0.06719 0.7525,0.06719 1.11531,0h26.9825v123.84c0,1.90813 -1.53187,3.44 -3.44,3.44h-89.44c-1.90812,0 -3.44,-1.53187 -3.44,-3.44zM61.87969,68.75969c-1.3975,0.01344 -2.64719,0.86 -3.18469,2.15c-0.52406,1.30344 -0.215,2.78156 0.79281,3.7625l21.64781,21.64781l-21.64781,21.64781c-0.90031,0.86 -1.26313,2.15 -0.94063,3.34594c0.30906,1.20938 1.24969,2.15 2.45906,2.45906c1.19594,0.3225 2.48594,-0.04031 3.34594,-0.94063l21.64781,-21.64781l21.64781,21.64781c0.86,0.90031 2.15,1.26313 3.34594,0.94063c1.20938,-0.30906 2.15,-1.24969 2.45906,-2.45906c0.3225,-1.19594 -0.04031,-2.48594 -0.94063,-3.34594l-21.64781,-21.64781l21.64781,-21.64781c1.02125,-0.99437 1.31688,-2.49937 0.76594,-3.80281c-0.55094,-1.31688 -1.84094,-2.15 -3.26531,-2.10969c-0.90031,0.02688 -1.74688,0.40313 -2.365,1.04813l-21.64781,21.64781l-21.64781,-21.64781c-0.645,-0.67188 -1.53187,-1.03469 -2.4725,-1.04813z"></path></g></g></svg>